<svg width="72" height="72" viewBox="0 0 72 72" fill="none" xmlns="http://www.w3.org/2000/svg">
<rect width="72" height="72" rx="16" fill="#9C6FE2"/>
<path fill-rule="evenodd" clip-rule="evenodd" d="M23.9805 29.8656C23.8604 29.9413 23.7384 30.0075 23.6144 30.0649C22.9642 30.3658 22.2571 30.4239 21.466 30.328C19.4494 30.0837 18.2727 28.7436 18.4821 27.0151C18.7591 24.729 20.6545 23.3273 23.0614 23.6189C23.8013 23.7085 24.4425 23.9526 24.9193 24.3235C25.0686 24.4396 25.2018 24.5681 25.3168 24.7082C25.4528 24.8738 25.5634 25.0555 25.6453 25.252L23.9157 26.2966C23.8467 26.1345 23.7606 25.9908 23.6566 25.8676C23.4288 25.5977 23.1153 25.4264 22.707 25.377C21.6754 25.252 20.8515 25.982 20.7108 27.1436C20.6185 27.9057 21.0862 28.481 21.8947 28.5789C22.3038 28.6285 22.7175 28.5397 23.1285 28.2537C23.2311 28.1824 23.3335 28.0987 23.4357 28.0018L24.5777 29.3943C24.5213 29.4484 24.4645 29.5 24.4074 29.5491C24.3047 29.6372 24.2007 29.7174 24.0953 29.7899C24.0572 29.8161 24.019 29.8413 23.9805 29.8656ZM25.368 30.2174C25.3194 30.1835 25.2732 30.1491 25.2295 30.1144L26.271 28.5999C26.3816 28.6829 26.4934 28.7596 26.6062 28.8304C27.112 29.1475 27.6391 29.3442 28.1707 29.4371C28.2441 29.4499 28.3175 29.4607 28.3911 29.4696C28.9579 29.5383 29.2733 29.4256 29.3015 29.1933C29.3305 28.9539 28.9683 28.8008 28.4942 28.6178L28.4095 28.5852L28.3554 28.5644C27.8636 28.3751 27.2868 28.145 26.9024 27.7586C26.8003 27.6559 26.7118 27.5422 26.642 27.4153C26.507 27.1695 26.4424 26.8742 26.4861 26.5137C26.5058 26.351 26.5397 26.1962 26.5873 26.0501C26.6707 25.7939 26.7958 25.564 26.9594 25.3633C27.5499 24.6388 28.6408 24.2948 30.0719 24.4682C30.5519 24.5263 31.0008 24.6295 31.3998 24.7721C31.6284 24.8538 31.8407 24.9484 32.033 25.0548C32.1807 25.1366 32.3167 25.2254 32.4392 25.3207L31.4556 26.8234C31.3037 26.7008 31.1387 26.5936 30.9641 26.5017C30.6141 26.3177 30.2254 26.1958 29.8269 26.1371C29.7946 26.1323 29.7623 26.128 29.7299 26.124C29.0887 26.0464 28.7468 26.2218 28.7198 26.4449C28.6878 26.7091 29.0984 26.865 29.6168 27.0575L29.6361 27.0647L29.666 27.0758C30.0417 27.2154 30.4672 27.3761 30.8198 27.6111C31.0966 27.7956 31.3285 28.0258 31.4561 28.3277C31.5468 28.5421 31.5848 28.7926 31.549 29.0884C31.3734 30.5381 29.9913 31.3608 27.9654 31.1154C27.3334 31.0388 26.75 30.8844 26.2565 30.6861C26.0009 30.5833 25.7694 30.4688 25.5678 30.3471C25.5065 30.3101 25.448 30.2725 25.3923 30.2343L25.368 30.2174ZM25.1194 28.2095L25.4793 27.6861C25.376 27.4232 25.3142 27.1356 25.3039 26.8252L24.4212 27.3583L25.1194 28.2095ZM23.2021 22.4572C24.4823 22.6123 25.7235 23.1821 26.4241 24.2374C26.5951 24.0861 26.7839 23.9501 26.9892 23.8311C27.8911 23.3085 29.0194 23.162 30.2127 23.3065C31.3099 23.4394 32.3762 23.7894 33.1575 24.397L33.675 24.7995C33.7435 24.7531 33.8141 24.7089 33.8868 24.6667C34.7887 24.1441 35.917 23.9976 37.1103 24.1421C38.2075 24.2751 39.2738 24.625 40.0551 25.2326L40.9065 25.8947L39.2712 28.3933C39.55 28.8566 39.6865 29.4185 39.6082 30.0648C39.4749 31.1658 38.8633 32.0531 37.9311 32.5881C37.0316 33.1043 35.9073 33.2562 34.7223 33.1126C33.407 32.9533 32.1882 32.491 31.4007 31.8674L31.1597 31.6766C31.1183 31.7026 31.0762 31.7279 31.0334 31.7525C30.134 32.2687 29.0097 32.4206 27.8246 32.277C26.5093 32.1177 25.2906 31.6554 24.5031 31.0318L24.4201 30.9661C23.4527 31.513 22.4074 31.6208 21.3252 31.4897C20.0944 31.3405 19.013 30.8424 18.267 30.0081C17.5095 29.1609 17.1777 28.053 17.3205 26.8744C17.4953 25.431 18.1941 24.2122 19.2764 23.4102C20.3536 22.6119 21.7372 22.2798 23.2021 22.4572ZM32.4655 31.1828C32.3408 31.1075 32.2275 31.0296 32.1271 30.9501L33.1687 29.4355C33.2792 29.5185 33.391 29.5952 33.5039 29.666C34.0096 29.9832 34.5367 30.1798 35.0683 30.2727C35.1417 30.2855 35.2152 30.2963 35.2887 30.3052C35.8556 30.3739 36.171 30.2613 36.1991 30.0289C36.2281 29.7895 35.866 29.6364 35.3919 29.4535L35.3071 29.4208L35.2531 29.4001C34.7612 29.2107 34.1844 28.9806 33.8001 28.5942C33.6979 28.4915 33.6094 28.3778 33.5396 28.2509C33.4046 28.0051 33.34 27.7098 33.3837 27.3493C33.5627 25.8717 34.9158 25.055 36.9695 25.3038C37.4495 25.3619 37.8985 25.4651 38.2974 25.6077C38.5261 25.6894 38.7383 25.784 38.9306 25.8905C39.0783 25.9723 39.2143 26.061 39.3368 26.1563L38.3532 27.6591C38.2014 27.5364 38.0363 27.4292 37.8617 27.3374C37.5117 27.1533 37.1231 27.0314 36.7245 26.9727C36.6922 26.9679 36.6599 26.9636 36.6275 26.9597C35.9863 26.882 35.6444 27.0574 35.6174 27.2805C35.5854 27.5447 35.996 27.7006 36.5144 27.8931L36.5337 27.9003L36.5637 27.9114C36.9393 28.051 37.3648 28.2117 37.7174 28.4467C37.9942 28.6312 38.2261 28.8615 38.3537 29.1633C38.4444 29.3777 38.4824 29.6282 38.4466 29.924C38.271 31.3738 36.8889 32.1964 34.863 31.951C34.2311 31.8744 33.6476 31.72 33.1541 31.5217C32.8985 31.4189 32.6671 31.3044 32.4655 31.1828ZM22.8392 26.7552L22.8997 26.8974L22.6305 27.1528C22.474 27.3011 22.3536 27.3644 22.2736 27.3927C22.1971 27.4199 22.1228 27.4279 22.0355 27.4173C21.9555 27.4076 21.9091 27.3892 21.8873 27.3781C21.8806 27.3747 21.8759 27.3718 21.8727 27.3696C21.8705 27.3594 21.8666 27.3323 21.8724 27.2844C21.9137 26.9433 22.0434 26.7487 22.1505 26.654C22.2476 26.568 22.3762 26.5156 22.5662 26.5386C22.6752 26.5518 22.7166 26.5805 22.732 26.5925C22.7506 26.607 22.7931 26.647 22.8392 26.7552ZM42.3538 37.4631L40.7927 35.4604L22.7121 40.5471L23.4084 49.5895L31.9236 47.1939L31.5447 42.2729L32.405 42.0309L32.7876 46.9508L37.2113 45.7063L36.8288 40.7863L37.6999 40.5413L38.0788 45.4622L42.3137 44.2708L42.2675 43.6712L43.6691 43.2768L43.7184 43.8756L54.7121 40.7827L54.4033 36.6589L51.5517 37.4611L51.1692 32.5412L43.4995 34.6989L42.3538 37.4631ZM26.2573 43.177L26.0791 40.8154L23.9524 41.4137L24.4655 48.0766L26.5921 47.4783L26.4067 45.0215L28.3711 44.4688L28.5566 46.9256L30.6833 46.3273L30.1702 39.6645L28.0436 40.2628L28.2217 42.6243L26.2573 43.177ZM33.8436 45.4382L33.4611 40.5182L31.6138 41.0379L31.4833 39.2951L37.3045 37.6573L37.4351 39.4002L35.5877 39.9199L35.9703 44.8399L33.8436 45.4382ZM42.4545 42.403L40.8425 40.4059L41.0733 43.4042L39.1359 43.9493L38.6229 37.2864L40.353 36.7997L42.6658 39.7665L44.363 35.6715L46.1743 35.162L46.7054 41.8197L44.7679 42.3648L44.5179 39.333L43.3917 42.1393L42.4545 42.403ZM50.1131 34.0538L50.4957 38.9738L53.3432 38.1727L53.4738 39.9155L48.4995 41.315L47.9865 34.6521L50.1131 34.0538Z" fill="white"/>
</svg>
