<svg width="40" height="40" viewBox="0 0 40 40" xmlns="http://www.w3.org/2000/svg">
<g opacity="0.9">
<path d="M24.875 7H15.125C10.6384 7 7 10.6084 7 15.058V24.7275C7 29.1771 10.6384 32.7855 15.125 32.7855H24.875C29.3616 32.7855 33 29.1771 33 24.7275V15.058C33 10.6084 29.3616 7 24.875 7ZM30.5625 24.7275C30.5625 27.8379 28.0112 30.3681 24.875 30.3681H15.125C11.9887 30.3681 9.4375 27.8379 9.4375 24.7275V15.058C9.4375 11.9476 11.9887 9.41739 15.125 9.41739H24.875C28.0112 9.41739 30.5625 11.9476 30.5625 15.058V24.7275Z"/>
<path d="M20 13.4464C16.4104 13.4464 13.5 16.3327 13.5 19.8927C13.5 23.4527 16.4104 26.3391 20 26.3391C23.5896 26.3391 26.5 23.4527 26.5 19.8927C26.5 16.3327 23.5896 13.4464 20 13.4464ZM20 23.9217C17.7607 23.9217 15.9375 22.1135 15.9375 19.8927C15.9375 17.6703 17.7607 15.8637 20 15.8637C22.2393 15.8637 24.0625 17.6703 24.0625 19.8927C24.0625 22.1135 22.2393 23.9217 20 23.9217Z"/>
<path d="M26.9877 13.822C27.4661 13.822 27.8538 13.4374 27.8538 12.963C27.8538 12.4886 27.4661 12.104 26.9877 12.104C26.5094 12.104 26.1216 12.4886 26.1216 12.963C26.1216 13.4374 26.5094 13.822 26.9877 13.822Z"/>
</g>
</svg>
