<svg width="40" height="40" viewBox="0 0 40 40" fill="none" xmlns="http://www.w3.org/2000/svg">
<rect width="40" height="40" rx="16" fill="#D53692"/>
<path d="M16.6686 20C16.6686 18.1591 18.1601 16.6664 20.0004 16.6664C21.8408 16.6664 23.333 18.1591 23.333 20C23.333 21.8409 21.8408 23.3336 20.0004 23.3336C18.1601 23.3336 16.6686 21.8409 16.6686 20ZM14.867 20C14.867 22.836 17.1652 25.1349 20.0004 25.1349C22.8356 25.1349 25.1338 22.836 25.1338 20C25.1338 17.164 22.8356 14.8651 20.0004 14.8651C17.1652 14.8651 14.867 17.164 14.867 20ZM24.1374 14.6615C24.1373 14.8989 24.2075 15.1309 24.3393 15.3283C24.471 15.5257 24.6583 15.6796 24.8775 15.7705C25.0967 15.8614 25.3379 15.8852 25.5706 15.839C25.8033 15.7928 26.0171 15.6786 26.185 15.5109C26.3528 15.3431 26.4672 15.1293 26.5135 14.8966C26.5599 14.6638 26.5363 14.4225 26.4455 14.2032C26.3548 13.9839 26.2012 13.7964 26.0039 13.6645C25.8067 13.5326 25.5748 13.4621 25.3375 13.462H25.337C25.019 13.4621 24.714 13.5886 24.4891 13.8135C24.2641 14.0384 24.1377 14.3434 24.1374 14.6615ZM15.9616 28.1398C14.9869 28.0954 14.4571 27.933 14.1051 27.7958C13.6383 27.614 13.3053 27.3975 12.9552 27.0478C12.605 26.698 12.3883 26.3652 12.2074 25.8983C12.0701 25.5463 11.9078 25.0162 11.8635 24.0413C11.815 22.9872 11.8053 22.6706 11.8053 20.0001C11.8053 17.3296 11.8158 17.0138 11.8635 15.9589C11.9079 14.9839 12.0714 14.4549 12.2074 14.1018C12.3891 13.635 12.6055 13.3018 12.9552 12.9516C13.3048 12.6014 13.6375 12.3846 14.1051 12.2036C14.457 12.0663 14.9869 11.9039 15.9616 11.8596C17.0154 11.8111 17.3319 11.8014 20.0004 11.8014C22.6689 11.8014 22.9858 11.8119 24.0404 11.8596C25.0151 11.904 25.544 12.0676 25.8969 12.2036C26.3637 12.3846 26.6967 12.6018 27.0469 12.9516C27.397 13.3014 27.6129 13.635 27.7946 14.1018C27.9319 14.4538 28.0942 14.9839 28.1385 15.9589C28.187 17.0138 28.1967 17.3296 28.1967 20.0001C28.1967 22.6706 28.187 22.9863 28.1385 24.0413C28.0942 25.0162 27.931 25.5462 27.7946 25.8983C27.6129 26.3652 27.3965 26.6983 27.0469 27.0478C26.6972 27.3972 26.3637 27.614 25.8969 27.7958C25.5451 27.933 25.0151 28.0954 24.0404 28.1398C22.9867 28.1882 22.6701 28.1979 20.0004 28.1979C17.3307 28.1979 17.015 28.1882 15.9616 28.1398ZM15.8788 10.0606C14.8145 10.109 14.0873 10.2778 13.4522 10.525C12.7945 10.7803 12.2377 11.1228 11.6813 11.6785C11.1249 12.2342 10.7834 12.792 10.5282 13.4499C10.2811 14.0856 10.1123 14.8126 10.0638 15.8772C10.0146 16.9434 10.0033 17.2843 10.0033 20C10.0033 22.7157 10.0146 23.0566 10.0638 24.1228C10.1123 25.1874 10.2811 25.9144 10.5282 26.5501C10.7834 27.2076 11.125 27.7661 11.6813 28.3215C12.2376 28.877 12.7945 29.219 13.4522 29.475C14.0885 29.7222 14.8145 29.891 15.8788 29.9394C16.9453 29.9879 17.2855 30 20.0004 30C22.7153 30 23.0561 29.9887 24.122 29.9394C25.1864 29.891 25.9131 29.7222 26.5486 29.475C27.2059 29.219 27.7631 28.8772 28.3195 28.3215C28.8759 27.7658 29.2167 27.2076 29.4726 26.5501C29.7198 25.9144 29.8893 25.1874 29.937 24.1228C29.9854 23.0558 29.9967 22.7157 29.9967 20C29.9967 17.2843 29.9854 16.9434 29.937 15.8772C29.8885 14.8126 29.7198 14.0852 29.4726 13.4499C29.2167 12.7924 28.875 12.235 28.3195 11.6785C27.764 11.1219 27.2059 10.7803 26.5494 10.525C25.9131 10.2778 25.1863 10.1082 24.1228 10.0606C23.0569 10.0121 22.7161 10 20.0012 10C17.2863 10 16.9453 10.0113 15.8788 10.0606Z" fill="white"/>
</svg>
