<svg width="40" height="40" viewBox="0 0 40 40" fill="none" xmlns="http://www.w3.org/2000/svg">
<rect width="40" height="40" rx="16" fill="#3F76B6"/>
<path d="M13.21 32H8.08541V14.8571H13.21V32ZM32 32H26.8754V22.8423C26.8754 20.456 26.0282 19.268 24.349 19.268C23.0184 19.268 22.1745 19.9331 21.7509 21.2651C21.7509 23.4286 21.7509 32 21.7509 32H16.6263C16.6263 32 16.6947 16.5714 16.6263 14.8571H20.6713L20.9839 18.2857H21.0898C22.1404 16.5714 23.8195 15.4091 26.1221 15.4091C27.873 15.4091 29.2891 15.8977 30.3704 17.1251C31.4585 18.3543 32 20.0034 32 22.3194V32Z" fill="white"/>
<path d="M10.6477 13.1429C12.11 13.1429 13.2954 11.9916 13.2954 10.5714C13.2954 9.15127 12.11 8 10.6477 8C9.18541 8 8 9.15127 8 10.5714C8 11.9916 9.18541 13.1429 10.6477 13.1429Z" fill="white"/>
</svg>
