<svg width="120" height="36" viewBox="0 0 120 36" xmlns="http://www.w3.org/2000/svg">
<path d="M40.9433 13.3974C38.487 13.3974 36.6347 15.3329 36.6347 17.9032C36.6347 20.4735 38.5065 22.409 40.9877 22.409C43.4433 22.409 45.2956 20.4735 45.2956 17.9032C45.2956 15.3329 43.4246 13.3974 40.9433 13.3974ZM53.3915 0H0V36H53.3915L66 18.0387L53.3915 0ZM27.9177 23.6028L27.7939 23.7074C25.8007 25.3874 23.493 26.239 20.9355 26.239C18.5174 26.239 16.3358 25.399 14.7932 23.8738C13.2646 22.361 12.4217 20.2405 12.4217 17.9032C12.4217 15.6581 13.2778 13.5677 14.8344 12.0194C16.4136 10.4392 18.5703 9.56903 20.9169 9.56903C23.5631 9.56903 25.3929 10.207 27.2437 11.7701L27.5075 11.993L24.9057 15.1068L24.6356 14.8831C23.5008 13.9425 22.5093 13.3974 20.8009 13.3974C18.5353 13.3974 16.6922 15.4188 16.6922 17.9032C16.6922 20.5401 18.5228 22.4532 21.0445 22.4532C22.1544 22.4532 23.1413 22.1907 23.911 21.6914V20.0168H20.474V16.3843H27.9177V23.6028ZM47.1231 23.791C45.5213 25.3696 43.3265 26.239 40.9433 26.239C38.5602 26.239 36.37 25.3757 34.7846 23.8072C33.2234 22.2627 32.3633 20.1685 32.3633 17.9032C32.3563 16.8094 32.5688 15.7253 32.9885 14.7142C33.4081 13.7032 34.0265 12.7857 34.8072 12.0155C36.409 10.4369 38.6038 9.57135 40.9877 9.57135C43.3717 9.57135 45.5602 10.4354 47.1456 12.0031C48.7069 13.5476 49.5669 15.6418 49.5669 17.9071C49.5735 19.0002 49.3608 20.0837 48.9412 21.094C48.5215 22.1044 47.9034 23.0213 47.1231 23.791Z"/>
<path fill-rule="evenodd" clip-rule="evenodd" d="M120 0H67V36H120V0ZM83.021 9.58203H87.0076V26.2356H83.021V9.58203ZM91.8868 13.0027H96.0134V26.2192H100.008V13.0027H104.463V9.5708H91.8868V13.0027Z"/>
</svg>
