<svg width="118" height="30" viewBox="0 0 118 30" fill="none" xmlns="http://www.w3.org/2000/svg">
<path d="M44.4904 5.77387C44.4295 4.85194 45.129 4.05685 46.0483 4.00319L114.583 0.00285479C115.487 -0.0498865 116.265 0.634371 116.332 1.54008L117.995 23.9741C118.064 24.8986 117.366 25.7009 116.444 25.7578L47.7447 29.9968C46.8339 30.053 46.0492 29.3602 45.9888 28.4466L44.4904 5.77387Z" fill="#FEC830"/>
<path d="M3.1351 28.5509C2.2113 28.6039 1.42302 27.8958 1.37605 26.9685C1.07408 21.0069 0.29267 8.96804 0.0036443 4.56344C-0.0568169 3.64204 0.642289 2.85615 1.5609 2.80144L37.2284 0.677097C37.7755 0.644513 38.3033 0.885342 38.6384 1.32048L47.0746 12.2751C47.4954 12.8215 47.536 13.5721 47.1765 14.161L40.1251 25.7138C39.8413 26.1787 39.3485 26.4746 38.806 26.5057L3.1351 28.5509Z" fill="black"/>
<path d="M9.1149 15.4708C9.05429 14.6507 9.16304 13.8269 9.43447 13.05C9.69137 12.3037 10.0961 11.6162 10.6249 11.0278C11.1697 10.4325 11.8271 9.94949 12.5596 9.60615C13.3435 9.23259 14.1928 9.01357 15.0607 8.9612C16.0576 8.89448 16.9489 8.98158 17.7347 9.22252C18.5382 9.47183 19.2909 9.86034 19.9582 10.3701L18.1947 12.787C17.7735 12.4731 17.3051 12.2271 16.8068 12.0581C16.3118 11.9048 15.7917 11.8482 15.275 11.8913C14.8703 11.9113 14.4746 12.0174 14.1146 12.2022C13.7546 12.387 13.4387 12.6463 13.1881 12.9627C12.6478 13.6203 12.4083 14.3987 12.4695 15.2979C12.5344 16.2553 12.8888 17.0252 13.5328 17.6075C14.1768 18.1898 14.9655 18.4493 15.899 18.3859C16.6616 18.334 17.2816 18.1224 17.7588 17.751L17.6586 16.2781L15.3114 16.436L15.1519 14.0858L20.5884 13.7211L20.9488 19.0203C19.5519 20.3176 17.8875 21.0304 15.9556 21.1587C14.7419 21.2406 13.6287 21.0552 12.6161 20.6027C11.6249 20.1692 10.776 19.4682 10.1659 18.5794C9.54509 17.6824 9.19475 16.6462 9.1149 15.4708Z" fill="white"/>
<path d="M23.5993 14.5162C23.5408 13.701 23.6527 12.8827 23.9278 12.1126C24.19 11.3636 24.597 10.6726 25.126 10.0788C25.6715 9.47841 26.3299 8.98979 27.0641 8.6404C28.6409 7.88881 30.4477 7.76623 32.1127 8.2979C32.8824 8.54356 33.5959 8.93727 34.2126 9.4566C34.8123 9.97319 35.3029 10.6029 35.6559 11.3092C36.0287 12.0426 36.2475 12.8438 36.299 13.6638C36.3568 14.4791 36.2452 15.2974 35.971 16.068C35.7109 16.8176 35.3051 17.5092 34.7767 18.1035C34.2329 18.7029 33.5762 19.1906 32.8437 19.539C32.0652 19.917 31.2192 20.1384 30.3543 20.1907C29.163 20.2707 28.0623 20.0722 27.0524 19.5952C26.0705 19.1405 25.2314 18.4295 24.6246 17.538C24.0149 16.6409 23.6607 15.5968 23.5993 14.5162ZM26.9516 14.291C27.0102 15.1595 27.346 15.886 27.959 16.4705C28.572 17.055 29.3152 17.3178 30.1887 17.2589C31.0729 17.2 31.7742 16.8443 32.2924 16.1919C32.8106 15.5396 33.0397 14.7712 32.9797 13.8868C32.9207 13.0183 32.5849 12.2918 31.9723 11.7073C31.3596 11.1227 30.6101 10.8601 29.7236 10.9194C28.8505 10.978 28.1549 11.3335 27.6366 11.9858C27.1184 12.6382 26.8901 13.4066 26.9516 14.291Z" fill="white"/>
<path d="M54.7693 22.6827L53.9712 10.9512L57.2413 10.7321L58.0422 22.4637L54.7693 22.6827Z" fill="white"/>
<path d="M59.1199 13.474L58.9257 10.6178L69.2877 9.9228L69.4819 12.7784L65.9332 13.0153L66.537 21.894L63.267 22.113L62.6631 13.2343L59.1199 13.474Z" fill="white"/>
<path d="M69.2626 17.1651C69.216 16.5304 69.2892 15.8926 69.4786 15.2847C69.6529 14.7112 69.9381 14.1769 70.3181 13.7118C70.7019 13.2527 71.1764 12.8767 71.7122 12.607C72.2816 12.3172 72.9053 12.148 73.544 12.11C74.3073 12.0588 74.9976 12.1455 75.6147 12.3702C76.1964 12.5727 76.7194 12.9136 77.138 13.3632C77.5427 13.8085 77.8623 14.3235 78.081 14.8827C78.3169 15.4867 78.4564 16.1236 78.4946 16.7703C78.5148 17.0594 78.5237 17.2779 78.5232 17.4258L72.4112 17.8356C72.5713 18.3238 72.8325 18.6859 73.1947 18.922C73.557 19.1581 73.99 19.2591 74.4937 19.225C75.2041 19.1757 75.8577 18.8156 76.4547 18.1447L78.3256 19.4958C77.4361 20.7768 76.154 21.4735 74.4791 21.5858C73.5292 21.6499 72.6711 21.5104 71.9047 21.1671C71.1517 20.8366 70.5105 20.2975 70.0579 19.6142C69.5911 18.9204 69.326 18.104 69.2626 17.1651ZM72.2512 16.2088L75.4221 15.9958C75.327 15.4925 75.1296 15.1033 74.83 14.8282C74.5304 14.5532 74.1635 14.4299 73.7292 14.4585C73.5334 14.4681 73.3419 14.519 73.1674 14.6079C72.9929 14.6968 72.8395 14.8215 72.7173 14.9739C72.4551 15.2897 72.2997 15.7013 72.2512 16.2088Z" fill="white"/>
<path d="M79.6369 16.4693C79.5903 15.8344 79.6634 15.1965 79.8524 14.5883C80.0269 14.0149 80.312 13.4807 80.6919 13.0154C81.0757 12.5567 81.55 12.1807 82.0854 11.9107C82.6549 11.6208 83.2789 11.4517 83.9177 11.4142C84.6811 11.363 85.3713 11.4496 85.9884 11.6738C86.5703 11.8756 87.0935 12.216 87.5124 12.6651C87.9171 13.1102 88.2367 13.625 88.4554 14.1841C88.6912 14.7891 88.8307 15.4269 88.869 16.0745C88.8887 16.3636 88.8981 16.5821 88.8969 16.73L82.7855 17.1404C82.9456 17.6282 83.2068 17.9901 83.569 18.2262C83.9313 18.4623 84.3643 18.5635 84.868 18.5298C85.5817 18.4812 86.2358 18.1208 86.8301 17.4484L88.7011 18.7995C87.8112 20.0805 86.5291 20.7771 84.8546 20.8894C83.9043 20.9536 83.0461 20.814 82.2802 20.4708C81.5271 20.1402 80.8859 19.6011 80.4333 18.9179C79.9662 18.224 79.7007 17.4078 79.6369 16.4693ZM82.6255 15.5124L85.7965 15.2995C85.7013 14.7965 85.5038 14.4073 85.2038 14.1319C84.9038 13.8565 84.5369 13.7332 84.103 13.7621C83.9072 13.7717 83.7157 13.8227 83.5413 13.9117C83.3669 14.0007 83.2136 14.1256 83.0917 14.2781C82.8286 14.5946 82.6732 15.0061 82.6255 15.5124Z" fill="white"/>
<path d="M90.6896 20.2733L90.074 11.2066L93.278 10.9915L93.3653 12.2758C94.0798 11.2305 94.9566 10.6731 95.9957 10.6034C96.962 10.5381 97.7414 10.7844 98.3339 11.3423C98.9264 11.9002 99.2579 12.6971 99.3284 13.7331L99.7313 19.6661L96.5273 19.8807L96.1915 14.9835C96.1587 14.4991 96.0162 14.1328 95.764 13.8849C95.5117 13.6369 95.1903 13.5257 94.7997 13.5513C94.3971 13.5787 94.0811 13.7338 93.8516 14.0166C93.6222 14.2995 93.5235 14.6805 93.5556 15.1598L93.8886 20.057L90.6896 20.2733Z" fill="white"/>
<path d="M100.778 18.4146L101.849 16.4058C102.949 17.0085 104.018 17.275 105.056 17.2054C105.594 17.1683 105.852 16.983 105.829 16.6494C105.819 16.4903 105.699 16.3664 105.473 16.2774C105.247 16.1884 104.858 16.0934 104.312 15.9916C103.898 15.913 103.545 15.8356 103.253 15.7592C102.945 15.677 102.644 15.569 102.354 15.4362C102.082 15.3191 101.83 15.1606 101.607 14.9664C101.403 14.7757 101.237 14.5483 101.119 14.2964C100.979 14.0031 100.898 13.6853 100.881 13.3612C100.816 12.4012 101.102 11.6306 101.742 11.0494C102.381 10.4682 103.244 10.1412 104.331 10.0686C105.007 10.0238 105.685 10.0754 106.346 10.222C106.986 10.3577 107.601 10.5885 108.171 10.9065L107.213 13.0004C106.739 12.7881 106.246 12.6218 105.74 12.5038C105.246 12.3904 104.818 12.3459 104.456 12.3704C104.215 12.3863 104.033 12.4384 103.912 12.5266C103.856 12.564 103.81 12.6159 103.781 12.6769C103.751 12.7379 103.739 12.8056 103.745 12.873C103.755 13.0328 103.873 13.1568 104.097 13.245C104.32 13.3332 104.715 13.4387 105.281 13.5614C105.695 13.6451 106.048 13.728 106.34 13.8099C106.648 13.8982 106.949 14.0097 107.24 14.1435C107.512 14.2602 107.764 14.4185 107.987 14.6127C108.189 14.8005 108.354 15.0237 108.475 15.271C108.614 15.5548 108.694 15.8633 108.71 16.1784C108.778 17.1688 108.494 17.9521 107.861 18.5281C107.227 19.1041 106.339 19.4305 105.196 19.5072C103.565 19.6158 102.092 19.2516 100.778 18.4146Z" fill="white"/>
</svg>
