<svg width="39" height="26" viewBox="0 0 39 26" fill="none" xmlns="http://www.w3.org/2000/svg">
<rect x="0.5" width="38" height="26" rx="4" fill="white"/>
<path d="M29.7534 12.6834C29.7534 16.0592 27.0452 18.8183 23.6599 18.8183C20.3068 18.8183 17.5664 16.0592 17.5664 12.6834C17.5664 9.30752 20.2746 6.54841 23.6277 6.54841C27.0452 6.54841 29.7534 9.30752 29.7534 12.6834Z" fill="#FFB600"/>
<path d="M23.6599 6.54841C27.0129 6.54841 29.7534 9.30752 29.7534 12.6834C29.7534 16.0592 27.0452 18.8183 23.6599 18.8183C20.3068 18.8183 17.5664 16.0592 17.5664 12.6834" fill="#F7981D"/>
<path d="M23.6599 6.54841C27.0129 6.54841 29.7534 9.30752 29.7534 12.6834C29.7534 16.0592 27.0452 18.8183 23.6599 18.8183" fill="#FF8500"/>
<path d="M15.4705 6.54841C12.1496 6.58087 9.44141 9.30752 9.44141 12.6834C9.44141 16.0592 12.1496 18.8183 15.5349 18.8183C17.1148 18.8183 18.5334 18.2016 19.6295 17.2278C19.8552 17.033 20.0487 16.8058 20.2421 16.5786H18.9847C18.8235 16.3838 18.6623 16.1566 18.5334 15.9618H20.6935C20.8225 15.7671 20.9514 15.5399 21.0481 15.3126H18.1787C18.082 15.1179 17.9853 14.8907 17.9208 14.6634H21.2738C21.4673 14.0467 21.5962 13.3975 21.5962 12.7158C21.5962 12.2614 21.5318 11.8394 21.4673 11.4174H17.7273C17.7596 11.1902 17.8241 10.9954 17.8885 10.7682H21.2416C21.1771 10.541 21.0804 10.3138 20.9837 10.119H18.1465C18.2432 9.8918 18.3722 9.69704 18.5011 9.46982H20.6613C20.5323 9.24259 20.3711 9.01537 20.1776 8.82061H18.9847C19.1782 8.59339 19.3716 8.39863 19.5973 8.20387C18.5334 7.19761 17.0886 6.54838 15.5088 6.54838C15.5088 6.48346 15.5027 6.54841 15.4705 6.54841Z" fill="#FF5050"/>
<path d="M9.44141 12.6834C9.44141 16.0592 12.1496 18.8183 15.5349 18.8183C17.1148 18.8183 18.5334 18.2016 19.6295 17.2278C19.8552 17.033 20.0487 16.8058 20.2421 16.5786H18.9847C18.8235 16.3838 18.6623 16.1566 18.5334 15.9618H20.6935C20.8225 15.7671 20.9514 15.5399 21.0481 15.3126H18.1787C18.082 15.1179 17.9853 14.8907 17.9208 14.6634H21.2738C21.4673 14.0467 21.5962 13.3975 21.5962 12.7158C21.5962 12.2614 21.5318 11.8394 21.4673 11.4174H17.7273C17.7596 11.1902 17.8241 10.9954 17.8885 10.7682H21.2416C21.1771 10.541 21.0804 10.3138 20.9837 10.119H18.1465C18.2432 9.8918 18.3722 9.69704 18.5011 9.46982H20.6613C20.5323 9.24259 20.3711 9.01537 20.1776 8.82061H18.9847C19.1782 8.59339 19.3716 8.39863 19.5973 8.20387C18.5334 7.19761 17.0886 6.54838 15.5088 6.54838" fill="#E52836"/>
<path d="M15.5349 18.8183C17.1148 18.8183 18.5334 18.2016 19.6295 17.2278C19.8552 17.033 20.0487 16.8058 20.2421 16.5786H18.9847C18.8235 16.3838 18.6623 16.1566 18.5334 15.9618H20.6935C20.8225 15.7671 20.9514 15.5399 21.0481 15.3126H18.1787C18.082 15.1179 17.9853 14.8907 17.9208 14.6634H21.2738C21.4673 14.0467 21.5962 13.3975 21.5962 12.7158C21.5962 12.2614 21.5318 11.8394 21.4673 11.4174H17.7273C17.7596 11.1902 17.8241 10.9954 17.8885 10.7682H21.2416C21.1771 10.541 21.0804 10.3138 20.9837 10.119H18.1465C18.2432 9.8918 18.3722 9.69704 18.5011 9.46982H20.6613C20.5323 9.24259 20.3711 9.01537 20.1776 8.82061H18.9847C19.1782 8.59339 19.3716 8.39863 19.5973 8.20387C18.5334 7.19761 17.0886 6.54838 15.5088 6.54838" fill="#CB2026"/>
<path d="M17.6949 14.2414L17.7916 13.6896C17.7594 13.6896 17.6949 13.7221 17.6304 13.7221C17.4047 13.7221 17.3725 13.5922 17.4047 13.5273L17.5982 12.3912H17.9528L18.0495 11.7745H17.7271L17.7916 11.3849H17.1468C17.1468 11.3849 16.7599 13.5273 16.7599 13.787C16.7599 14.1765 16.9856 14.3388 17.2758 14.3388C17.4692 14.3388 17.6304 14.2739 17.6949 14.2414Z" fill="white"/>
<path d="M17.9208 13.2028C17.9208 14.1117 18.5334 14.3389 19.0492 14.3389C19.5328 14.3389 19.7263 14.2415 19.7263 14.2415L19.8552 13.6248C19.8552 13.6248 19.5006 13.7871 19.1782 13.7871C18.4689 13.7871 18.5978 13.2677 18.5978 13.2677H19.9197C19.9197 13.2677 20.0164 12.8457 20.0164 12.6834C20.0164 12.2614 19.7908 11.7421 19.0815 11.7421C18.4044 11.6772 17.9208 12.3913 17.9208 13.2028ZM19.0492 12.2614C19.4039 12.2614 19.3394 12.6834 19.3394 12.7159H18.6301C18.6301 12.6834 18.6946 12.2614 19.0492 12.2614Z" fill="white"/>
<path d="M23.1437 14.2414L23.2727 13.5273C23.2727 13.5273 22.9503 13.6896 22.7246 13.6896C22.2732 13.6896 22.0798 13.3326 22.0798 12.943C22.0798 12.164 22.4667 11.742 22.918 11.742C23.2404 11.742 23.4984 11.9368 23.4984 11.9368L23.5951 11.2551C23.5951 11.2551 23.2082 11.0928 22.8535 11.0928C22.112 11.0928 21.3705 11.742 21.3705 12.9755C21.3705 13.787 21.7573 14.3388 22.5311 14.3388C22.7891 14.3388 23.1437 14.2414 23.1437 14.2414Z" fill="white"/>
<path d="M14.1486 11.6772C13.6972 11.6772 13.3748 11.8071 13.3748 11.8071L13.2781 12.3589C13.2781 12.3589 13.5683 12.229 13.9874 12.229C14.2131 12.229 14.4065 12.2615 14.4065 12.4563C14.4065 12.5861 14.3743 12.6186 14.3743 12.6186C14.3743 12.6186 14.1809 12.6186 14.0841 12.6186C13.536 12.6186 12.9235 12.8458 12.9235 13.5924C12.9235 14.1766 13.3103 14.3065 13.536 14.3065C13.9874 14.3065 14.1809 14.0143 14.2131 14.0143L14.1809 14.274H14.7612L15.0191 12.4887C15.0191 11.7097 14.3743 11.6772 14.1486 11.6772ZM14.2776 13.1379C14.2776 13.2353 14.2131 13.7547 13.8262 13.7547C13.6328 13.7547 13.5683 13.5924 13.5683 13.495C13.5683 13.3327 13.665 13.1055 14.1486 13.1055C14.2453 13.1379 14.2776 13.1379 14.2776 13.1379Z" fill="white"/>
<path d="M15.6317 14.3063C15.7929 14.3063 16.5989 14.3387 16.5989 13.4623C16.5989 12.6508 15.8251 12.8131 15.8251 12.4885C15.8251 12.3262 15.9541 12.2613 16.1798 12.2613C16.2765 12.2613 16.6312 12.2938 16.6312 12.2938L16.7279 11.7095C16.7279 11.7095 16.5022 11.6446 16.1153 11.6446C15.6317 11.6446 15.1481 11.8393 15.1481 12.4885C15.1481 13.2351 15.9541 13.1702 15.9541 13.4623C15.9541 13.6571 15.7284 13.6895 15.5672 13.6895C15.277 13.6895 14.9869 13.5922 14.9869 13.5922L14.8902 14.1764C14.9224 14.2414 15.0836 14.3063 15.6317 14.3063Z" fill="white"/>
<path d="M28.4958 11.1582L28.3668 12.0346C28.3668 12.0346 28.1089 11.71 27.7543 11.71C27.1739 11.71 26.6581 12.4242 26.6581 13.2681C26.6581 13.7875 26.916 14.3393 27.4641 14.3393C27.851 14.3393 28.0767 14.0796 28.0767 14.0796L28.0444 14.3068H28.6893L29.1729 11.1907L28.4958 11.1582ZM28.2056 12.8786C28.2056 13.2357 28.0444 13.6901 27.6898 13.6901C27.4641 13.6901 27.3351 13.4953 27.3351 13.1707C27.3351 12.6514 27.5608 12.3268 27.851 12.3268C28.0767 12.3268 28.2056 12.4891 28.2056 12.8786Z" fill="white"/>
<path d="M10.6343 14.2744L11.0212 11.9373L11.0857 14.2744H11.537L12.3753 11.9373L12.0206 14.2744H12.6977L13.2136 11.1582H12.1496L11.5048 13.0734L11.4725 11.1582H10.5376L10.0217 14.2744H10.6343Z" fill="white"/>
<path d="M20.6288 14.274C20.8223 13.2028 20.8545 12.3264 21.3059 12.4887C21.3704 12.0667 21.4671 11.9044 21.5316 11.7421C21.5316 11.7421 21.4993 11.7421 21.4026 11.7421C21.1124 11.7421 20.8867 12.1316 20.8867 12.1316L20.9512 11.7745H20.3386L19.9195 14.3064H20.6288V14.274Z" fill="white"/>
<path d="M24.6266 11.6772C24.1753 11.6772 23.8528 11.8071 23.8528 11.8071L23.7561 12.3589C23.7561 12.3589 24.0463 12.229 24.4654 12.229C24.6911 12.229 24.8846 12.2615 24.8846 12.4563C24.8846 12.5861 24.8523 12.6186 24.8523 12.6186C24.8523 12.6186 24.6589 12.6186 24.5621 12.6186C24.014 12.6186 23.4015 12.8458 23.4015 13.5924C23.4015 14.1766 23.7884 14.3065 24.014 14.3065C24.4654 14.3065 24.6589 14.0143 24.6911 14.0143L24.6589 14.274H25.2392L25.4971 12.4887C25.5294 11.7097 24.8523 11.6772 24.6266 11.6772ZM24.7878 13.1379C24.7878 13.2353 24.7233 13.7547 24.3365 13.7547C24.143 13.7547 24.0785 13.5924 24.0785 13.495C24.0785 13.3327 24.1753 13.1055 24.6589 13.1055C24.7556 13.1379 24.7556 13.1379 24.7878 13.1379Z" fill="white"/>
<path d="M26.0455 14.274C26.2389 13.2028 26.2712 12.3264 26.7225 12.4887C26.787 12.0667 26.8837 11.9044 26.9482 11.7421C26.9482 11.7421 26.916 11.7421 26.8193 11.7421C26.5291 11.7421 26.3034 12.1316 26.3034 12.1316L26.3679 11.7745H25.7553L25.3362 14.3064H26.0455V14.274Z" fill="white"/>
<path d="M16.6956 13.787C16.6956 14.1765 16.9212 14.3388 17.2114 14.3388C17.4371 14.3388 17.6304 14.2739 17.6949 14.2414L17.7916 13.6896C17.7594 13.6896 17.6949 13.7221 17.6304 13.7221C17.4047 13.7221 17.3725 13.5922 17.4047 13.5273L17.5982 12.3912H17.9528L18.0495 11.7745H17.7271L17.7916 11.3849" fill="#DCE5E5"/>
<path d="M18.2433 13.2028C18.2433 14.1117 18.5334 14.3389 19.0492 14.3389C19.5328 14.3389 19.7263 14.2415 19.7263 14.2415L19.8552 13.6248C19.8552 13.6248 19.5006 13.7871 19.1782 13.7871C18.4689 13.7871 18.5978 13.2677 18.5978 13.2677H19.9197C19.9197 13.2677 20.0164 12.8457 20.0164 12.6834C20.0164 12.2614 19.7908 11.7421 19.0815 11.7421C18.4044 11.6772 18.2433 12.3913 18.2433 13.2028ZM19.0492 12.2614C19.4039 12.2614 19.4684 12.6834 19.4684 12.7159H18.6301C18.6301 12.6834 18.6946 12.2614 19.0492 12.2614Z" fill="#DCE5E5"/>
<path d="M23.1437 14.2414L23.2727 13.5273C23.2727 13.5273 22.9503 13.6896 22.7246 13.6896C22.2732 13.6896 22.0798 13.3326 22.0798 12.943C22.0798 12.164 22.4667 11.742 22.918 11.742C23.2404 11.742 23.4984 11.9368 23.4984 11.9368L23.5951 11.2551C23.5951 11.2551 23.2082 11.0928 22.8535 11.0928C22.112 11.0928 21.6929 11.742 21.6929 12.9755C21.6929 13.787 21.7574 14.3388 22.5311 14.3388C22.7891 14.3388 23.1437 14.2414 23.1437 14.2414Z" fill="#DCE5E5"/>
<path d="M13.2781 12.3913C13.2781 12.3913 13.5683 12.2615 13.9874 12.2615C14.2131 12.2615 14.4065 12.2939 14.4065 12.4887C14.4065 12.6185 14.3743 12.651 14.3743 12.651C14.3743 12.651 14.1809 12.651 14.0841 12.651C13.536 12.651 12.9235 12.8782 12.9235 13.6248C12.9235 14.2091 13.3103 14.3389 13.536 14.3389C13.9874 14.3389 14.1809 14.0468 14.2131 14.0468L14.1809 14.3064H14.7612L15.0191 12.5211C15.0191 11.7745 14.3743 11.7421 14.1164 11.7421L13.2781 12.3913ZM14.6 13.1379C14.6 13.2353 14.2131 13.7547 13.8262 13.7547C13.6328 13.7547 13.5683 13.5924 13.5683 13.495C13.5683 13.3327 13.665 13.1055 14.1486 13.1055C14.2453 13.1379 14.6 13.1379 14.6 13.1379Z" fill="#DCE5E5"/>
<path d="M14.9222 14.2414C14.9222 14.2414 15.1156 14.3063 15.6637 14.3063C15.8249 14.3063 16.631 14.3387 16.631 13.4623C16.631 12.6508 15.8572 12.8131 15.8572 12.4885C15.8572 12.3262 15.9861 12.2613 16.2118 12.2613C16.3085 12.2613 16.6632 12.2938 16.6632 12.2938L16.7599 11.7095C16.7599 11.7095 16.5342 11.6446 16.1473 11.6446C15.6637 11.6446 15.5025 11.8393 15.5025 12.4885C15.5025 13.2351 15.9861 13.1702 15.9861 13.4623C15.9861 13.6571 15.7604 13.6895 15.5992 13.6895" fill="#DCE5E5"/>
<path d="M28.3668 12.0346C28.3668 12.0346 28.1089 11.71 27.7543 11.71C27.1739 11.71 26.9804 12.4245 26.9804 13.2684C26.9804 13.7878 26.916 14.3393 27.4641 14.3393C27.851 14.3393 28.0767 14.0796 28.0767 14.0796L28.0444 14.3068H28.6893L29.1729 11.1907L28.3668 12.0346ZM28.3345 12.8789C28.3345 13.236 28.0444 13.6901 27.6898 13.6901C27.4641 13.6901 27.3351 13.4953 27.3351 13.1707C27.3351 12.6514 27.5608 12.3268 27.851 12.3268C28.0767 12.3268 28.3345 12.4894 28.3345 12.8789Z" fill="#DCE5E5"/>
<path d="M10.6343 14.2744L11.0212 11.9373L11.0857 14.2744H11.537L12.3753 11.9373L12.0206 14.2744H12.6977L13.2136 11.1582H12.4075L11.5048 13.0734L11.4725 11.1582H11.1179L10.0217 14.2744H10.6343Z" fill="#DCE5E5"/>
<path d="M19.952 14.274L20.6288 14.274C20.8223 13.2028 20.8545 12.3264 21.3059 12.4887C21.3704 12.0667 21.4671 11.9044 21.5316 11.7421C21.5316 11.7421 21.4993 11.7421 21.4026 11.7421C21.1124 11.7421 20.8867 12.1316 20.8867 12.1316L20.9512 11.7745" fill="#DCE5E5"/>
<path d="M23.7561 12.3913C23.7561 12.3913 24.0463 12.2615 24.4654 12.2615C24.6911 12.2615 24.8846 12.2939 24.8846 12.4887C24.8846 12.6185 24.8523 12.651 24.8523 12.651C24.8523 12.651 24.6589 12.651 24.5621 12.651C24.014 12.651 23.4015 12.8782 23.4015 13.6248C23.4015 14.2091 23.7884 14.3389 24.014 14.3389C24.4654 14.3389 24.6589 14.0468 24.6911 14.0468L24.6589 14.3064H25.2392L25.4971 12.5211C25.4971 11.7745 24.8523 11.7421 24.5944 11.7421L23.7561 12.3913ZM25.078 13.1379C25.078 13.2353 24.6911 13.7546 24.3042 13.7546C24.1108 13.7546 24.0463 13.5923 24.0463 13.4949C24.0463 13.3326 24.143 13.1054 24.6266 13.1054C24.7556 13.1379 25.078 13.1379 25.078 13.1379Z" fill="#DCE5E5"/>
<path d="M25.3684 14.274L26.0455 14.274C26.2389 13.2028 26.2712 12.3264 26.7225 12.4887C26.787 12.0667 26.8837 11.9044 26.9482 11.7421C26.9482 11.7421 26.916 11.7421 26.8193 11.7421C26.5291 11.7421 26.3034 12.1316 26.3034 12.1316L26.3679 11.7745" fill="#DCE5E5"/>
</svg>
