<svg width="64" height="64" viewBox="0 0 64 64" fill="none" xmlns="http://www.w3.org/2000/svg">
<path opacity="0.2" d="M32 0L34.0118 19.9438L42.3904 1.73385L37.8175 21.2503L51.6548 6.7475L40.9927 23.7216L58.7893 14.4977L43.1934 27.0901L63.0208 24.1445L44.1812 30.9906L63.8907 34.6425L43.8489 35.0005L61.3047 44.8543L42.2326 38.6853L55.5432 53.673L39.5075 41.6456L47.2303 60.1432L35.9688 43.5606L37.267 63.5636L32 44.2229L26.733 63.5636L28.0312 43.5606L16.7697 60.1432L24.4925 41.6456L8.45683 53.673L21.7674 38.6853L2.69525 44.8543L20.1511 35.0005L0.109297 34.6425L19.8188 30.9906L0.979191 24.1445L20.8066 27.0901L5.21067 14.4977L23.0073 23.7216L12.3452 6.7475L26.1825 21.2503L21.6096 1.73385L29.9882 19.9438L32 0Z" fill="#89D3C1"/>
</svg>
