<svg width="40" height="40" viewBox="0 0 40 40" xmlns="http://www.w3.org/2000/svg">
<g opacity="0.9">
<path d="M33.1966 9.61141C32.8714 9.21723 32.3846 9 31.8257 9C31.5217 9 31.1999 9.06362 30.869 9.18884L8.34632 17.7154C7.15107 18.1678 6.99009 18.8466 7.00045 19.2112C7.0108 19.5756 7.21035 20.2444 8.42955 20.6289C8.43685 20.6314 8.44416 20.6334 8.45147 20.6356L11.6101 21.5319L26.9932 13.7377C27.3765 13.5432 27.8462 13.6942 28.0421 14.0745C28.196 14.3733 28.1342 14.7244 27.915 14.9555L19.3625 23.9691L19.1185 24.9497L26.4053 30.7689C26.409 30.7717 26.4126 30.7748 26.4165 30.7776C26.8822 31.1359 27.3909 31.3252 27.8876 31.3254C28.8583 31.3254 29.6311 30.6129 29.8563 29.5105L33.5465 11.439C33.6945 10.7139 33.5703 10.0646 33.1966 9.61141Z"/>
<path d="M17.8981 23.4018C17.9292 23.2768 17.9917 23.1576 18.0869 23.0571L23.6992 17.1429L13.2848 22.4196L15.6495 29.1266C15.7843 29.5087 15.9849 29.8341 16.2329 30.0887L17.8981 23.4018Z"/>
<path d="M17.6846 30.7096C18.2467 30.705 18.799 30.4698 19.283 30.0279L21.0131 28.448L18.7063 26.6059L17.6846 30.7096Z"/>
</g>
</svg>
