<svg width="40" height="40" viewBox="0 0 40 40" fill="none" xmlns="http://www.w3.org/2000/svg">
<rect width="40" height="40" rx="16" fill="white"/>
<g clip-path="url(#clip0_1_18)">
<path d="M16.5875 20.4453C14.6844 20.4453 13.1469 21.9828 13.175 23.8719C13.1938 25.0813 13.8594 26.1312 14.8391 26.7172C14.5063 26.2062 14.3094 25.6016 14.3 24.95C14.2719 23.0656 15.8094 21.5281 17.7125 21.5281C18.0875 21.5281 18.4484 21.5891 18.7859 21.6969V17.9234C18.4344 17.8719 18.0734 17.8438 17.7125 17.8438C17.6938 17.8438 17.6797 17.8438 17.6609 17.8438V20.6188C17.3234 20.5063 16.9625 20.4453 16.5875 20.4453Z" fill="#F00044"/>
<path d="M24.8141 9.125H24.7859H23.8109C24.0922 10.5359 24.8844 11.7641 25.9906 12.5984C25.2641 11.6375 24.8234 10.4375 24.8141 9.125Z" fill="#F00044"/>
<path d="M30.5516 18.5516V14.8719C30.1813 14.8719 29.825 14.8344 29.4734 14.7687V17.4688C28.1984 17.4688 26.9609 17.2203 25.7984 16.7234C25.0484 16.4047 24.35 15.9969 23.7078 15.5047L23.7266 23.8438C23.7172 25.7188 22.9766 27.4766 21.6359 28.8031C20.5438 29.8812 19.1609 30.5703 17.6609 30.7906C17.3094 30.8422 16.9484 30.8703 16.5875 30.8703C15.6922 30.8703 14.825 30.7062 14.0141 30.4016C14.3563 30.5984 14.7078 30.7813 15.0734 30.9453C15.9594 31.3438 16.9016 31.6391 17.8859 31.8125C18.0922 31.85 18.2984 31.8781 18.5094 31.9063C18.6031 31.8969 18.6922 31.8828 18.7859 31.8688C20.2859 31.6484 21.6688 30.9594 22.7609 29.8812C24.1016 28.5547 24.8422 26.7969 24.8516 24.9219L24.7859 16.5828C25.4234 17.075 26.1219 17.4875 26.8766 17.8016C28.0391 18.2984 29.2813 18.5516 30.5516 18.5516Z" fill="#F00044"/>
<path d="M11.5297 18.8375C10.2031 20.15 9.44843 21.95 9.44843 23.8203C9.44843 24.8703 9.6828 25.8875 10.1187 26.8109C10.5641 27.4578 11.075 28.0625 11.6375 28.6063C10.9437 27.5047 10.5734 26.2297 10.5734 24.8984C10.5734 23.0281 11.3281 21.2281 12.6547 19.9109C13.9906 18.5844 15.7672 17.8484 17.6609 17.8344V16.8359C17.3094 16.7844 16.9484 16.7563 16.5875 16.7563C14.675 16.7609 12.8797 17.4969 11.5297 18.8375Z" fill="#08FFF9"/>
<path d="M29.4734 14.7641V13.7609H29.4641C28.1609 13.7609 26.9609 13.3297 25.9953 12.5984C26.8344 13.7047 28.0625 14.4922 29.4734 14.7641Z" fill="#08FFF9"/>
<path d="M17.5203 28.2641C17.9656 28.2875 18.3922 28.2266 18.7859 28.1C20.1453 27.6547 21.125 26.3891 21.125 24.8984L21.1297 19.3203V9.125H23.8109C23.7406 8.77344 23.7031 8.41719 23.6984 8.04688H20V18.2328L19.9953 23.8109C19.9953 25.3016 19.0156 26.5672 17.6563 27.0125C17.2625 27.1438 16.8359 27.2047 16.3906 27.1766C15.8234 27.1438 15.2938 26.975 14.8344 26.7031C15.4156 27.5984 16.4 28.2031 17.5203 28.2641Z" fill="#08FFF9"/>
<path d="M29.4734 17.4734V14.7687C28.0625 14.4969 26.8344 13.7094 25.9953 12.6031C24.8891 11.7687 24.0969 10.5406 23.8156 9.12969H21.1344V19.3156L21.1297 24.8937C21.1297 26.3844 20.15 27.65 18.7906 28.0953C18.3969 28.2266 17.9703 28.2875 17.525 28.2594C16.4 28.1984 15.4203 27.5937 14.8437 26.7078C13.8641 26.1266 13.1984 25.0719 13.1797 23.8625C13.1516 21.9781 14.6891 20.4406 16.5922 20.4406C16.9672 20.4406 17.3281 20.5016 17.6656 20.6094V17.8344C15.7719 17.8484 13.9953 18.5844 12.6594 19.9109C11.3281 21.2281 10.5734 23.0281 10.5734 24.8984C10.5734 26.2297 10.9437 27.5047 11.6375 28.6062C12.35 29.3 13.1469 29.9 14.0141 30.4016C14.825 30.7109 15.6922 30.8703 16.5875 30.8703C16.9484 30.8703 17.3094 30.8422 17.6609 30.7906C19.1609 30.5703 20.5437 29.8812 21.6359 28.8031C22.9766 27.4766 23.7172 25.7187 23.7266 23.8437L23.7078 15.5047C24.3453 15.9969 25.0437 16.4094 25.7984 16.7234C26.9609 17.2203 28.2031 17.4734 29.4734 17.4734Z" fill="#010101"/>
</g>
<defs>
<clipPath id="clip0_1_18">
<rect width="24" height="24" fill="white" transform="translate(8 8)"/>
</clipPath>
</defs>
</svg>
