<svg width="39" height="26" viewBox="0 0 39 26" fill="none" xmlns="http://www.w3.org/2000/svg">
<g clip-path="url(#clip0_15_798)">
<rect x="0.5" width="38" height="26" rx="4" fill="white"/>
<path d="M18.413 8.16756H15.7698L14.119 17.8551H16.7578L18.413 8.16756Z" fill="#059BBF"/>
<path d="M10.5452 17.8453L14.7022 8.17406H11.9048L9.31877 14.7816L9.04275 13.784C8.53584 12.5838 7.08709 10.8563 5.38629 9.76888L7.75016 17.8486L10.5452 17.8453Z" fill="#059BBF"/>
<path d="M25.952 14.6882C25.9618 13.5883 25.2556 12.7494 23.7338 12.0565C22.809 11.609 22.2453 11.3105 22.252 10.8564C22.252 10.4552 22.7294 10.0242 23.7637 10.0242C24.6292 10.0109 25.2523 10.1999 25.7397 10.3955L25.9785 10.505L26.3367 8.40629C25.8128 8.21057 24.9938 8.00172 23.9695 8.00172C21.3602 8.00172 19.5235 9.31473 19.5069 11.1979C19.4903 12.5904 20.82 13.3663 21.8211 13.8303C22.8488 14.3034 23.1936 14.6062 23.187 15.0305C23.1804 15.6794 22.368 15.9753 21.6088 15.9753C20.5512 15.9753 19.9909 15.8295 19.1218 15.4675L18.7841 15.3123L18.4132 17.4832C19.0294 17.7525 20.1698 17.9879 21.3536 17.9977C24.1284 17.9977 25.9321 16.7014 25.952 14.6882Z" fill="#059BBF"/>
<path d="M29.0918 16.4031C29.3935 16.4031 32.0889 16.4064 32.4736 16.4064C32.5532 16.7437 32.7952 17.8585 32.7952 17.8585H35.2453L33.1068 8.17755H31.0679C30.4346 8.17755 29.9639 8.34996 29.6853 8.97978L25.7632 17.8585H28.5384C28.5384 17.8585 28.989 16.6651 29.0918 16.4031ZM30.9019 11.7117C30.8888 11.7382 31.1209 11.1514 31.2535 10.7867L31.4324 11.6221C31.4324 11.6221 31.9365 13.9364 32.0425 14.4205H29.851C30.0698 13.8635 30.9019 11.7117 30.9019 11.7117Z" fill="#059BBF"/>
<path d="M36.2538 -0.103516H2.74623C1.50566 -0.103516 0.5 0.902149 0.5 2.14279V4.47415H38.5V2.14279C38.5 0.902149 37.4944 -0.103516 36.2538 -0.103516Z" fill="#059BBF"/>
<path d="M8.93407 13.1508L8.04181 8.87049C7.88929 8.28023 7.44546 8.10463 6.8909 8.0814H2.80011L2.76367 8.27697C5.94981 9.04936 8.05799 10.9127 8.93407 13.1508Z" fill="#F79F1A"/>
<path d="M36.2538 26.103H2.74623C1.50566 26.103 0.5 25.0972 0.5 23.8567V21.5253H38.5V23.8567C38.5 25.0972 37.4944 26.103 36.2538 26.103Z" fill="#F79F1A"/>
</g>
<defs>
<clipPath id="clip0_15_798">
<rect x="0.5" width="38" height="26" rx="4" fill="white"/>
</clipPath>
</defs>
</svg>
