<svg width="40" height="40" viewBox="0 0 40 40" fill="none" xmlns="http://www.w3.org/2000/svg">
<rect width="40" height="40" rx="16" fill="#E02900"/>
<path fill-rule="evenodd" clip-rule="evenodd" d="M29.3766 12.479C30.4092 12.7427 31.2225 13.5197 31.4985 14.5061C32 16.2941 32 20.0246 32 20.0246C32 20.0246 32 23.7552 31.4985 25.5432C31.2225 26.5296 30.4092 27.2742 29.3766 27.5379C27.505 28.017 20 28.017 20 28.017C20 28.017 12.495 28.017 10.6233 27.538C9.59074 27.2742 8.7775 26.5297 8.5015 25.5432C8 23.7553 8 20.0247 8 20.0247C8 20.0247 8 16.2941 8.5015 14.5061C8.7775 13.5197 9.59074 12.7428 10.6233 12.4791C12.495 12 20 12 20 12C20 12 27.505 12 29.3766 12.479ZM17.5459 16.6377V23.4119L23.8186 20.0248L17.5459 16.6377Z" fill="white"/>
</svg>
