<svg width="40" height="40" viewBox="0 0 40 40" xmlns="http://www.w3.org/2000/svg">
<path d="M34.64 11.1025C33.772 9.57125 32.83 9.28959 30.912 9.18248C28.996 9.05355 24.178 9 20.004 9C15.822 9 11.002 9.05355 9.088 9.1805C7.174 9.28959 6.23 9.56926 5.354 11.1025C4.46 12.6318 4 15.2659 4 19.9033C4 19.9072 4 19.9092 4 19.9092C4 19.9132 4 19.9152 4 19.9152V19.9191C4 24.5367 4.46 27.1906 5.354 28.7041C6.23 30.2353 7.172 30.513 9.086 30.6419C11.002 30.753 15.822 30.8185 20.004 30.8185C24.178 30.8185 28.996 30.753 30.914 30.6439C32.832 30.515 33.774 30.2373 34.642 28.706C35.544 27.1926 36 24.5387 36 19.9211C36 19.9211 36 19.9152 36 19.9112V19.9053C36 15.2659 35.544 12.6318 34.64 11.1025Z"/>
<path d="M16 25.8597V13.9587L26 19.9092L16 25.8597Z" fill="#263238"/>
</svg>
