<?xml version="1.0" encoding="utf-8"?><svg viewBox="0 0 120 72" xmlns="http://www.w3.org/2000/svg" xmlns:xlink="http://www.w3.org/1999/xlink"><style>:root>svg{display:none}:root>svg:target{display:block}</style><svg fill="none" viewBox="0 0 18 8" id="accordion-arrow" xmlns="http://www.w3.org/2000/svg"><path d="m1 1 8 5 8-5" stroke-width="2"/></svg><svg fill="none" viewBox="0 0 72 72" id="advantage-1" xmlns="http://www.w3.org/2000/svg"><rect width="72" height="72" rx="16" fill="#9C6FE2"/><path fill-rule="evenodd" clip-rule="evenodd" d="M23.98 29.866c-.12.075-.242.142-.366.199-.65.3-1.357.359-2.148.263-2.017-.244-3.193-1.584-2.984-3.313.277-2.286 2.172-3.688 4.58-3.396.74.09 1.38.334 1.857.704.15.117.283.245.398.385.136.166.246.348.328.544l-1.73 1.045a1.68 1.68 0 0 0-.258-.43c-.228-.27-.542-.44-.95-.49-1.032-.125-1.855.605-1.996 1.767-.092.762.375 1.337 1.184 1.435.409.05.823-.04 1.233-.325.103-.072.206-.155.308-.252l1.142 1.392a3.702 3.702 0 0 1-.597.471Zm1.388.351a2.785 2.785 0 0 1-.138-.103L26.27 28.6c.11.083.222.16.335.23a4.337 4.337 0 0 0 1.785.64c.567.068.882-.044.91-.277.03-.24-.333-.392-.807-.575l-.084-.033-.055-.02c-.491-.19-1.068-.42-1.453-.806a1.541 1.541 0 0 1-.26-.344 1.457 1.457 0 0 1-.156-.901c.02-.163.054-.318.101-.464.084-.256.209-.486.372-.687.59-.724 1.682-1.068 3.113-.895.48.058.929.162 1.328.304.228.082.44.176.633.283.148.082.284.17.406.266l-.983 1.502a3.025 3.025 0 0 0-.492-.321 3.57 3.57 0 0 0-1.234-.378c-.641-.078-.983.098-1.01.32-.032.265.378.421.897.614l.02.007.029.01c.376.14.801.301 1.154.536.277.185.508.415.636.717.09.214.129.465.093.76-.176 1.45-1.558 2.273-3.584 2.027a6.833 6.833 0 0 1-1.709-.429 4.814 4.814 0 0 1-.688-.339 3.593 3.593 0 0 1-.176-.113l-.024-.017Zm-.249-2.008.36-.523a2.575 2.575 0 0 1-.175-.86l-.883.532.698.851Zm-1.917-5.752c1.28.155 2.521.725 3.222 1.78a3.5 3.5 0 0 1 .565-.406c.902-.523 2.03-.669 3.224-.524 1.097.132 2.163.482 2.944 1.09l.518.402a3.6 3.6 0 0 1 .212-.132c.902-.523 2.03-.67 3.223-.525 1.098.133 2.164.483 2.945 1.09l.852.663-1.636 2.498c.279.464.416 1.026.337 1.672a3.31 3.31 0 0 1-1.677 2.523c-.9.516-2.024.668-3.209.525-1.315-.16-2.534-.622-3.321-1.246l-.241-.19a3.768 3.768 0 0 1-.127.076c-.899.516-2.023.668-3.208.524-1.316-.16-2.534-.622-3.322-1.245l-.083-.066c-.967.547-2.013.655-3.095.524-1.23-.15-2.312-.648-3.058-1.482-.758-.847-1.09-1.955-.947-3.134.175-1.443.874-2.662 1.956-3.464 1.078-.798 2.461-1.13 3.926-.953Zm9.263 8.726a3.263 3.263 0 0 1-.338-.233l1.042-1.514c.11.082.222.16.335.23a4.334 4.334 0 0 0 1.785.64c.567.068.882-.045.91-.277.03-.24-.333-.393-.807-.576l-.085-.032-.054-.02c-.492-.19-1.069-.42-1.453-.807a1.538 1.538 0 0 1-.26-.343 1.457 1.457 0 0 1-.156-.902c.179-1.477 1.532-2.294 3.585-2.045.48.058.93.161 1.328.304.23.081.441.176.634.282.147.082.283.171.406.266l-.984 1.503a3.007 3.007 0 0 0-.491-.322 3.566 3.566 0 0 0-1.235-.377c-.64-.078-.983.097-1.01.32-.032.265.379.42.897.613l.02.007.03.011c.375.14.8.3 1.153.536.277.184.51.415.637.716.09.215.128.465.093.761-.176 1.45-1.558 2.272-3.584 2.027a6.835 6.835 0 0 1-1.709-.43 4.823 4.823 0 0 1-.689-.338Zm-9.626-4.428.06.142-.268.256a1.039 1.039 0 0 1-.357.24.5.5 0 0 1-.239.024.45.45 0 0 1-.162-.047.267.267 0 0 1 0-.086c.04-.34.17-.535.277-.63a.497.497 0 0 1 .416-.115c.11.013.15.041.166.053a.392.392 0 0 1 .107.163Zm19.515 10.708-1.561-2.003-18.08 5.087.695 9.043 8.516-2.396-.38-4.921.861-.242.383 4.92 4.423-1.245-.382-4.92.87-.245.38 4.921 4.235-1.191-.047-.6 1.402-.394.05.599 10.993-3.093-.309-4.124-2.851.802-.383-4.92L43.5 34.7l-1.145 2.764Zm-16.097 5.714-.178-2.362-2.127.599.513 6.663 2.127-.599-.185-2.456 1.964-.553.186 2.457 2.126-.599-.513-6.663-2.126.599.178 2.361-1.965.553Zm7.587 2.261-.383-4.92-1.847.52-.13-1.743 5.82-1.638.131 1.743-1.847.52.382 4.92-2.126.598Zm8.61-3.035-1.611-1.997.23 2.998-1.937.545-.513-6.663 1.73-.486 2.313 2.967 1.697-4.096 1.811-.509.531 6.658-1.937.545-.25-3.032-1.126 2.806-.938.264Zm7.66-8.35.382 4.92 2.847-.8.13 1.742-4.974 1.4-.513-6.663 2.127-.598Z" fill="#fff"/></svg><svg fill="none" viewBox="0 0 72 72" id="advantage-2" xmlns="http://www.w3.org/2000/svg"><rect width="72" height="72" rx="16" fill="#5B86A1"/><path d="M27 48h24a1 1 0 0 0 1-1V25a1 1 0 0 0-1-1H28a1 1 0 0 0-1 1v19.4" stroke="#fff" stroke-width="2"/><rect x="31" y="27.6" width="17" height="13.2" rx="1" stroke="#fff" stroke-width="2"/><rect x="20" y="44.4" width="32" height="3.6" rx="1" stroke="#fff" stroke-width="2"/></svg><svg fill="none" viewBox="0 0 72 72" id="advantage-3" xmlns="http://www.w3.org/2000/svg"><rect width="72" height="72" rx="16" fill="#1DA551"/><path d="m23 38.25-4 4 26 5 8-8-3.5-1" stroke="#fff" stroke-width="2" stroke-linecap="round"/><path d="M22.75 33.5 19 37.25l26 5 4-4 4-4-4-.75" stroke="#fff" stroke-width="2" stroke-linecap="round"/><path d="m26.5 24.75-7.5 7.5 26 5 8-8-26.5-4.5Z" stroke="#fff" stroke-width="2" stroke-linecap="round"/><ellipse cx="35.5" cy="30.75" rx="5.5" ry="4" stroke="#fff" stroke-width="2"/></svg><svg fill="none" viewBox="0 0 72 72" id="advantage-4" xmlns="http://www.w3.org/2000/svg"><rect width="72" height="72" rx="16" fill="#4B5EB8"/><path d="m36 21 4.646 8.605 9.62 1.76-6.748 7.078 1.299 9.692L36 43.905l-8.817 4.23 1.299-9.692-6.748-7.078 9.62-1.76L36 21Z" stroke="#fff" stroke-width="2"/></svg><svg fill="none" viewBox="0 0 40 40" id="facebook" xmlns="http://www.w3.org/2000/svg"><rect width="40" height="40" rx="16" fill="#3D6DE6"/><path d="M26 15.771h-4.427v-2.49c0-.936.722-1.154 1.231-1.154h3.125V8.014L21.626 8c-4.777 0-5.864 3.067-5.864 5.03v2.741H13v4.238h2.762V32h5.81V20.009h3.921L26 15.77Z" fill="#fff"/></svg><svg viewBox="0 0 40 40" id="facebook-goiteens" xmlns="http://www.w3.org/2000/svg"><path d="M33.667 20.223C33.667 12.924 27.693 7 20.333 7 12.973 7 7 12.924 7 20.223c0 6.4 4.587 11.73 10.667 12.96V24.19H15v-3.967h2.667v-3.305c0-2.553 2.093-4.629 4.666-4.629h3.334v3.967H23c-.733 0-1.333.595-1.333 1.323v2.644h4v3.967h-4v9.19c6.733-.66 12-6.294 12-13.157Z" opacity=".9"/></svg><svg viewBox="0 0 24 24" id="icon-close-menu" xmlns="http://www.w3.org/2000/svg"><rect x="21.797" y="4.795" width="24" height="3.712" rx="1.856" transform="rotate(135 21.797 4.795)"/><rect x="19.172" y="21.768" width="24" height="3.712" rx="1.856" transform="rotate(-135 19.172 21.768)"/></svg><svg fill="none" viewBox="0 0 40 40" id="instagram" xmlns="http://www.w3.org/2000/svg"><rect width="40" height="40" rx="16" fill="#D53692"/><path d="M16.669 20A3.333 3.333 0 1 1 20 23.334 3.333 3.333 0 0 1 16.67 20Zm-1.802 0a5.134 5.134 0 1 0 10.267 0 5.134 5.134 0 1 0-10.267 0Zm9.27-5.338a1.2 1.2 0 1 0 1.2-1.2 1.2 1.2 0 0 0-1.2 1.2ZM15.962 28.14c-.975-.045-1.505-.207-1.857-.344a3.107 3.107 0 0 1-1.15-.748 3.085 3.085 0 0 1-.748-1.15c-.137-.352-.3-.882-.344-1.857-.048-1.054-.058-1.37-.058-4.04 0-2.671.01-2.987.059-4.042.044-.975.207-1.504.343-1.857.182-.467.398-.8.748-1.15.35-.35.682-.567 1.15-.748.352-.138.882-.3 1.857-.344 1.053-.049 1.37-.059 4.038-.059 2.669 0 2.986.01 4.04.059.975.044 1.504.208 1.857.344.467.18.8.398 1.15.748.35.35.566.683.748 1.15.137.352.3.882.343 1.857.049 1.055.059 1.37.059 4.041 0 2.67-.01 2.986-.058 4.041-.045.975-.208 1.505-.344 1.857a3.1 3.1 0 0 1-.748 1.15c-.35.35-.683.566-1.15.748-.352.137-.882.3-1.857.344-1.053.048-1.37.058-4.04.058s-2.985-.01-4.038-.058Zm-.083-18.08c-1.064.049-1.792.218-2.427.465a4.904 4.904 0 0 0-1.77 1.153 4.886 4.886 0 0 0-1.154 1.772c-.247.636-.416 1.363-.464 2.427-.05 1.066-.06 1.407-.06 4.123s.01 3.057.06 4.123c.048 1.064.217 1.791.464 2.427a4.888 4.888 0 0 0 1.153 1.771 4.915 4.915 0 0 0 1.771 1.154c.636.247 1.363.416 2.427.464 1.066.049 1.406.061 4.121.061 2.715 0 3.056-.011 4.122-.06 1.064-.049 1.791-.218 2.427-.465a4.916 4.916 0 0 0 1.77-1.154 4.899 4.899 0 0 0 1.154-1.77c.247-.637.416-1.364.464-2.428.048-1.067.06-1.407.06-4.123s-.012-3.057-.06-4.123c-.049-1.064-.217-1.792-.464-2.427a4.917 4.917 0 0 0-1.153-1.771 4.892 4.892 0 0 0-1.77-1.154c-.637-.247-1.364-.417-2.427-.464C23.057 10.012 22.716 10 20 10s-3.056.011-4.122.06Z" fill="#fff"/></svg><svg viewBox="0 0 40 40" id="instagram-goiteens" xmlns="http://www.w3.org/2000/svg"><g opacity=".9"><path d="M24.875 7h-9.75C10.638 7 7 10.608 7 15.058v9.67c0 4.45 3.638 8.057 8.125 8.057h9.75c4.487 0 8.125-3.608 8.125-8.057v-9.67C33 10.608 29.362 7 24.875 7Zm5.688 17.727c0 3.11-2.552 5.641-5.688 5.641h-9.75c-3.136 0-5.688-2.53-5.688-5.64v-9.67c0-3.11 2.552-5.64 5.688-5.64h9.75c3.136 0 5.688 2.53 5.688 5.64v9.67Z"/><path d="M20 13.446c-3.59 0-6.5 2.887-6.5 6.447s2.91 6.446 6.5 6.446 6.5-2.886 6.5-6.446c0-3.56-2.91-6.447-6.5-6.447Zm0 10.476c-2.24 0-4.063-1.809-4.063-4.03 0-2.222 1.824-4.028 4.063-4.028 2.24 0 4.063 1.806 4.063 4.029 0 2.22-1.824 4.029-4.063 4.029ZM26.988 13.822a.863.863 0 0 0 .866-.859.863.863 0 0 0-.866-.859.863.863 0 0 0-.866.859c0 .474.387.859.866.859Z"/></g></svg><svg fill="none" viewBox="0 0 40 40" id="linkedin" xmlns="http://www.w3.org/2000/svg"><rect width="40" height="40" rx="16" fill="#3F76B6"/><path d="M13.21 32H8.085V14.857h5.125V32ZM32 32h-5.125v-9.158c0-2.386-.847-3.574-2.526-3.574-1.33 0-2.175.665-2.598 1.997V32h-5.125s.069-15.429 0-17.143h4.045l.313 3.429h.106c1.05-1.715 2.73-2.877 5.032-2.877 1.751 0 3.167.489 4.248 1.716 1.088 1.23 1.63 2.878 1.63 5.194V32ZM10.648 13.143c1.462 0 2.647-1.151 2.647-2.572C13.295 9.151 12.11 8 10.648 8 9.185 8 8 9.151 8 10.571c0 1.42 1.185 2.572 2.648 2.572Z" fill="#fff"/></svg><svg viewBox="0 0 120 36" id="logo" xmlns="http://www.w3.org/2000/svg"><path d="M40.943 13.397c-2.456 0-4.308 1.936-4.308 4.506 0 2.57 1.872 4.506 4.353 4.506 2.455 0 4.308-1.935 4.308-4.506 0-2.57-1.871-4.506-4.353-4.506ZM53.392 0H0v36h53.392L66 18.039 53.392 0ZM27.918 23.603l-.124.104c-1.993 1.68-4.301 2.532-6.858 2.532-2.419 0-4.6-.84-6.143-2.365-1.528-1.513-2.371-3.633-2.371-5.97 0-2.246.856-4.336 2.412-5.885 1.58-1.58 3.736-2.45 6.083-2.45 2.646 0 4.476.638 6.327 2.201l.264.223-2.602 3.114-.27-.224c-1.135-.94-2.127-1.486-3.835-1.486-2.266 0-4.109 2.022-4.109 4.506 0 2.637 1.83 4.55 4.352 4.55 1.11 0 2.097-.262 2.867-.762v-1.674h-3.437v-3.633h7.444v7.219Zm19.205.188c-1.602 1.579-3.796 2.448-6.18 2.448-2.383 0-4.573-.863-6.158-2.432-1.562-1.544-2.422-3.638-2.422-5.904a8.18 8.18 0 0 1 2.444-5.887c1.602-1.58 3.797-2.445 6.18-2.445 2.385 0 4.573.864 6.159 2.432 1.56 1.545 2.42 3.639 2.42 5.904a8.18 8.18 0 0 1-2.443 5.884Z"/><path fill-rule="evenodd" clip-rule="evenodd" d="M120 0H67v36h53V0ZM83.021 9.582h3.987v16.654H83.02V9.582Zm8.866 3.42h4.126V26.22h3.995V13.003h4.455V9.57H91.887v3.432Z"/></svg><svg fill="none" viewBox="0 0 118 30" id="logo-goiteens" xmlns="http://www.w3.org/2000/svg"><path d="M44.49 5.774a1.661 1.661 0 0 1 1.558-1.77L114.583.002a1.659 1.659 0 0 1 1.749 1.537l1.663 22.434a1.661 1.661 0 0 1-1.551 1.784l-68.7 4.239a1.66 1.66 0 0 1-1.755-1.55L44.49 5.774Z" fill="#FEC830"/><path d="M3.135 28.55a1.665 1.665 0 0 1-1.759-1.582C1.074 21.008.293 8.968.004 4.563A1.655 1.655 0 0 1 1.56 2.801L37.228.677a1.655 1.655 0 0 1 1.41.643l8.437 10.955c.42.546.461 1.297.101 1.886l-7.05 11.553c-.285.465-.777.76-1.32.792L3.136 28.55Z" fill="#000"/><path d="M9.115 15.47c-.06-.82.048-1.643.32-2.42a5.897 5.897 0 0 1 1.19-2.022 6.174 6.174 0 0 1 1.935-1.422 6.76 6.76 0 0 1 2.5-.645c.998-.067 1.889.02 2.675.262.803.249 1.556.637 2.223 1.147l-1.763 2.417a5.022 5.022 0 0 0-1.388-.729 4.042 4.042 0 0 0-1.532-.167 2.85 2.85 0 0 0-2.087 1.072c-.54.657-.78 1.436-.719 2.335.065.957.42 1.727 1.064 2.31.644.582 1.433.841 2.366.778.763-.052 1.383-.264 1.86-.635l-.1-1.473-2.348.158-.16-2.35 5.437-.365.36 5.3c-1.396 1.297-3.06 2.01-4.992 2.138-1.214.082-2.327-.104-3.34-.556a5.78 5.78 0 0 1-2.45-2.024c-.62-.897-.971-1.933-1.051-3.108ZM23.6 14.516a5.89 5.89 0 0 1 .328-2.403c.262-.75.669-1.44 1.198-2.034a6.242 6.242 0 0 1 1.938-1.439 6.877 6.877 0 0 1 5.049-.342c.77.246 1.483.64 2.1 1.159.6.516 1.09 1.146 1.443 1.852a6.03 6.03 0 0 1 .643 2.355 5.921 5.921 0 0 1-.328 2.404 6.047 6.047 0 0 1-1.194 2.035c-.544.6-1.2 1.088-1.933 1.436-.779.378-1.625.6-2.49.652-1.191.08-2.292-.119-3.302-.596a5.97 5.97 0 0 1-3.453-5.079Zm3.352-.225c.058.868.394 1.595 1.007 2.18.613.584 1.356.847 2.23.788.884-.059 1.585-.415 2.103-1.067.519-.652.748-1.42.688-2.305-.06-.869-.395-1.595-1.008-2.18-.612-.584-1.362-.847-2.248-.788-.873.059-1.57.415-2.087 1.067-.519.652-.747 1.42-.685 2.305ZM54.77 22.683 53.97 10.95l3.27-.219.801 11.732-3.273.219ZM59.12 13.474l-.194-2.856 10.362-.695.194 2.855-3.549.237.604 8.879-3.27.219-.604-8.879-3.543.24ZM69.263 17.165a5.072 5.072 0 0 1 .216-1.88 4.6 4.6 0 0 1 .84-1.573c.383-.46.857-.835 1.393-1.105a4.647 4.647 0 0 1 1.832-.497c.763-.051 1.454.036 2.07.26a3.778 3.778 0 0 1 1.524.993c.405.446.724.96.943 1.52.236.604.375 1.24.414 1.887.02.29.029.508.028.656l-6.112.41c.16.488.421.85.784 1.086.362.236.795.337 1.299.303.71-.05 1.364-.41 1.96-1.08l1.872 1.35c-.89 1.282-2.172 1.979-3.847 2.09-.95.065-1.808-.075-2.574-.418a4.275 4.275 0 0 1-1.847-1.553c-.467-.694-.732-1.51-.795-2.449Zm2.988-.956 3.171-.213c-.095-.504-.292-.893-.592-1.168-.3-.275-.666-.398-1.1-.37a1.387 1.387 0 0 0-1.013.516c-.262.316-.417.727-.466 1.235ZM79.637 16.47a5.084 5.084 0 0 1 .215-1.882c.175-.573.46-1.107.84-1.573a4.4 4.4 0 0 1 1.393-1.104 4.639 4.639 0 0 1 1.833-.497c.763-.051 1.453.036 2.07.26a3.775 3.775 0 0 1 1.524.991c.405.445.725.96.943 1.52.236.604.376 1.242.414 1.89.02.289.03.507.028.655l-6.112.41c.16.488.422.85.784 1.086.362.236.795.338 1.299.304.714-.049 1.368-.41 1.962-1.082l1.871 1.351c-.89 1.282-2.172 1.978-3.846 2.09-.95.065-1.809-.075-2.575-.418a4.276 4.276 0 0 1-1.847-1.553c-.467-.694-.732-1.51-.796-2.449Zm2.989-.958 3.17-.213c-.095-.502-.292-.892-.592-1.167s-.667-.399-1.101-.37a1.385 1.385 0 0 0-1.011.516c-.263.317-.419.728-.466 1.234ZM90.69 20.273l-.616-9.066 3.204-.216.087 1.285c.715-1.046 1.592-1.603 2.63-1.673.967-.065 1.746.181 2.339.74.592.557.924 1.354.994 2.39l.403 5.933-3.204.215-.335-4.898c-.033-.484-.176-.85-.428-1.098-.252-.248-.574-.36-.964-.334-.403.028-.719.183-.948.466-.23.283-.329.664-.296 1.143l.333 4.897-3.2.216ZM100.778 18.415l1.071-2.01c1.1.604 2.169.87 3.207.8.538-.037.796-.222.773-.556-.01-.159-.13-.283-.356-.372-.226-.089-.615-.184-1.161-.285a16.218 16.218 0 0 1-1.059-.233 5.674 5.674 0 0 1-.899-.323 2.859 2.859 0 0 1-.747-.47 2.19 2.19 0 0 1-.488-.67 2.472 2.472 0 0 1-.238-.935c-.065-.96.221-1.73.861-2.312.639-.58 1.502-.908 2.589-.98a7.126 7.126 0 0 1 2.015.153c.64.136 1.255.367 1.825.684L107.213 13a8.107 8.107 0 0 0-1.473-.496c-.494-.114-.922-.158-1.284-.134-.241.016-.423.068-.544.157a.376.376 0 0 0-.167.346c.01.16.128.284.352.372.223.088.618.194 1.184.316.414.084.767.167 1.059.249.308.088.609.2.9.333.272.117.524.275.747.47.202.188.367.41.488.658.139.284.219.592.235.907.068.99-.216 1.774-.849 2.35-.634.576-1.522.902-2.665.98-1.631.108-3.104-.256-4.418-1.093Z" fill="#fff"/></svg><svg fill="none" viewBox="0 0 39 26" id="mastercard" xmlns="http://www.w3.org/2000/svg"><rect x=".5" width="38" height="26" rx="4" fill="#fff"/><path d="M29.753 12.683c0 3.376-2.708 6.135-6.093 6.135-3.353 0-6.094-2.759-6.094-6.135 0-3.375 2.709-6.135 6.062-6.135a6.116 6.116 0 0 1 6.125 6.135Z" fill="#FFB600"/><path d="M23.66 6.548c3.353 0 6.093 2.76 6.093 6.135 0 3.376-2.708 6.135-6.093 6.135-3.353 0-6.094-2.759-6.094-6.135" fill="#F7981D"/><path d="M23.66 6.548c3.353 0 6.093 2.76 6.093 6.135 0 3.376-2.708 6.135-6.093 6.135" fill="#FF8500"/><path d="M15.47 6.548c-3.32.033-6.029 2.76-6.029 6.135 0 3.376 2.709 6.135 6.094 6.135 1.58 0 2.998-.616 4.095-1.59.225-.195.419-.422.612-.65h-1.257a7.472 7.472 0 0 1-.452-.616h2.16c.13-.195.258-.422.355-.65h-2.87a3.883 3.883 0 0 1-.257-.649h3.353a6.483 6.483 0 0 0 .322-1.947c0-.455-.064-.877-.129-1.299h-3.74c.033-.227.097-.422.162-.649h3.353a3.89 3.89 0 0 0-.258-.649h-2.838c.097-.227.226-.422.355-.65h2.16a3.085 3.085 0 0 0-.483-.648h-1.193c.193-.228.387-.422.612-.617-1.064-1.006-2.508-1.656-4.088-1.656 0-.065-.006 0-.039 0Z" fill="#FF5050"/><path d="M9.441 12.683c0 3.376 2.709 6.135 6.094 6.135 1.58 0 2.998-.616 4.095-1.59.225-.195.419-.422.612-.65h-1.257a7.472 7.472 0 0 1-.452-.616h2.16c.13-.195.258-.422.355-.65h-2.87a3.883 3.883 0 0 1-.257-.649h3.353a6.483 6.483 0 0 0 .322-1.947c0-.455-.064-.877-.129-1.299h-3.74c.033-.227.097-.422.162-.649h3.353a3.89 3.89 0 0 0-.258-.649h-2.838c.097-.227.226-.422.355-.65h2.16a3.085 3.085 0 0 0-.483-.648h-1.193c.193-.228.387-.422.612-.617-1.064-1.006-2.508-1.656-4.088-1.656" fill="#E52836"/><path d="M15.535 18.818c1.58 0 2.998-.616 4.095-1.59.225-.195.419-.422.612-.65h-1.257a7.472 7.472 0 0 1-.452-.616h2.16c.13-.195.258-.422.355-.65h-2.87a3.883 3.883 0 0 1-.257-.649h3.353a6.483 6.483 0 0 0 .322-1.947c0-.455-.064-.877-.129-1.299h-3.74c.033-.227.097-.422.162-.649h3.353a3.89 3.89 0 0 0-.258-.649h-2.838c.097-.227.226-.422.355-.65h2.16a3.085 3.085 0 0 0-.483-.648h-1.193c.193-.228.387-.422.612-.617-1.064-1.006-2.508-1.656-4.088-1.656" fill="#CB2026"/><path d="m17.695 14.241.097-.551c-.033 0-.097.032-.162.032-.225 0-.258-.13-.225-.195l.193-1.136h.355l.096-.617h-.322l.065-.39h-.645s-.387 2.143-.387 2.403c0 .39.226.552.516.552a.984.984 0 0 0 .419-.098ZM17.92 13.203c0 .909.613 1.136 1.13 1.136.483 0 .676-.098.676-.098l.13-.616s-.355.162-.678.162c-.71 0-.58-.52-.58-.52h1.322s.096-.421.096-.584c0-.422-.225-.94-.934-.94-.678-.066-1.161.648-1.161 1.46Zm1.13-.942c.354 0 .29.422.29.455h-.71c0-.033.065-.455.42-.455ZM23.144 14.241l.129-.714s-.323.163-.548.163c-.452 0-.645-.357-.645-.747 0-.779.387-1.201.838-1.201.322 0 .58.195.58.195l.097-.682s-.387-.162-.741-.162c-.742 0-1.483.649-1.483 1.883 0 .811.386 1.363 1.16 1.363.258 0 .613-.098.613-.098ZM14.149 11.677c-.452 0-.774.13-.774.13l-.097.552s.29-.13.71-.13c.225 0 .418.033.418.227 0 .13-.032.163-.032.163h-.29c-.548 0-1.16.227-1.16.973 0 .585.386.714.612.714.451 0 .645-.292.677-.292l-.032.26h.58l.258-1.785c0-.78-.645-.812-.87-.812Zm.129 1.46c0 .098-.065.618-.452.618-.193 0-.258-.163-.258-.26 0-.162.097-.39.58-.39a.506.506 0 0 0 .13.033ZM15.632 14.306c.16 0 .967.033.967-.844 0-.811-.774-.649-.774-.973 0-.163.13-.228.355-.228.096 0 .451.033.451.033l.097-.585s-.226-.064-.613-.064c-.483 0-.967.194-.967.844 0 .746.806.681.806.973 0 .195-.226.228-.387.228-.29 0-.58-.098-.58-.098l-.097.584c.032.065.194.13.742.13ZM28.496 11.158l-.13.877s-.257-.325-.612-.325c-.58 0-1.096.714-1.096 1.558 0 .52.258 1.071.806 1.071.387 0 .613-.26.613-.26l-.033.228h.645l.484-3.116-.677-.033Zm-.29 1.72c0 .358-.162.812-.516.812-.226 0-.355-.195-.355-.52 0-.519.226-.843.516-.843.226 0 .355.162.355.552ZM10.634 14.274l.387-2.337.065 2.337h.451l.838-2.337-.354 2.337h.677l.516-3.116H12.15l-.645 1.915-.033-1.915h-.934l-.516 3.116h.612ZM20.629 14.274c.193-1.071.226-1.948.677-1.785.064-.422.161-.585.226-.747h-.13c-.29 0-.515.39-.515.39l.064-.357h-.612l-.42 2.531h.71v-.032ZM24.627 11.677c-.452 0-.774.13-.774.13l-.097.552s.29-.13.71-.13c.225 0 .419.033.419.227 0 .13-.033.163-.033.163h-.29c-.548 0-1.16.227-1.16.973 0 .585.386.714.612.714.451 0 .645-.292.677-.292l-.032.26h.58l.258-1.785c.032-.78-.645-.812-.87-.812Zm.16 1.46c0 .098-.064.618-.45.618-.194 0-.259-.163-.259-.26 0-.162.097-.39.58-.39.098.033.098.033.13.033ZM26.046 14.274c.193-1.071.225-1.948.677-1.785.064-.422.16-.585.225-.747h-.129c-.29 0-.516.39-.516.39l.065-.357h-.613l-.419 2.531h.71v-.032Z" fill="#fff"/><path d="M16.696 13.787c0 .39.225.552.515.552.226 0 .42-.065.484-.098l.097-.551c-.033 0-.097.032-.162.032-.225 0-.258-.13-.225-.195l.193-1.136h.355l.096-.617h-.322l.065-.39M18.243 13.203c0 .909.29 1.136.806 1.136.484 0 .677-.098.677-.098l.13-.616s-.355.162-.678.162c-.71 0-.58-.52-.58-.52h1.322s.096-.421.096-.584c0-.422-.225-.94-.934-.94-.678-.066-.839.648-.839 1.46Zm.806-.942c.355 0 .42.422.42.455h-.839c0-.033.065-.455.42-.455ZM23.144 14.241l.129-.714s-.323.163-.548.163c-.452 0-.645-.357-.645-.747 0-.779.387-1.201.838-1.201.322 0 .58.195.58.195l.097-.682s-.387-.162-.741-.162c-.742 0-1.161.649-1.161 1.883 0 .811.064 1.363.838 1.363.258 0 .613-.098.613-.098ZM13.278 12.391s.29-.13.71-.13c.225 0 .418.033.418.228 0 .13-.032.162-.032.162h-.29c-.548 0-1.16.227-1.16.974 0 .584.386.714.612.714.451 0 .645-.292.677-.292l-.032.26h.58l.258-1.786c0-.747-.645-.779-.903-.779l-.838.65Zm1.322.747c0 .097-.387.617-.774.617-.193 0-.258-.163-.258-.26 0-.162.097-.39.58-.39.097.033.452.033.452.033ZM14.922 14.241s.194.065.742.065c.16 0 .967.033.967-.844 0-.811-.774-.649-.774-.973 0-.163.13-.228.355-.228.096 0 .451.033.451.033l.097-.585s-.226-.064-.613-.064c-.483 0-.644.194-.644.844 0 .746.483.681.483.973 0 .195-.226.228-.387.228M28.367 12.035s-.258-.325-.613-.325c-.58 0-.774.714-.774 1.558 0 .52-.064 1.071.484 1.071.387 0 .613-.26.613-.26l-.033.228h.645l.484-3.116-.806.844Zm-.033.844c0 .357-.29.811-.644.811-.226 0-.355-.195-.355-.52 0-.519.226-.843.516-.843.226 0 .483.162.483.552ZM10.634 14.274l.387-2.337.065 2.337h.451l.838-2.337-.354 2.337h.677l.516-3.116h-.806l-.903 1.915-.033-1.915h-.354l-1.096 3.116h.612ZM19.952 14.274h.677c.193-1.071.226-1.948.677-1.785.064-.422.161-.585.226-.747h-.13c-.29 0-.515.39-.515.39l.064-.357M23.756 12.391s.29-.13.71-.13c.225 0 .419.033.419.228 0 .13-.033.162-.033.162h-.29c-.548 0-1.16.227-1.16.974 0 .584.386.714.612.714.451 0 .645-.292.677-.292l-.032.26h.58l.258-1.786c0-.747-.645-.779-.903-.779l-.838.65Zm1.322.747c0 .097-.387.617-.774.617-.193 0-.258-.163-.258-.26 0-.162.097-.39.58-.39.13.033.452.033.452.033ZM25.368 14.274h.678c.193-1.071.225-1.948.677-1.785.064-.422.16-.585.225-.747h-.129c-.29 0-.516.39-.516.39l.065-.357" fill="#DCE5E5"/></svg><svg fill="none" viewBox="0 0 64 64" id="slide-star" xmlns="http://www.w3.org/2000/svg"><path opacity=".2" d="m32 0 2.012 19.944 8.378-18.21-4.572 19.516L51.654 6.747 40.993 23.723l17.796-9.224L43.193 27.09l19.828-2.945-18.84 6.846 19.71 3.651L43.849 35l17.456 9.854-19.072-6.169 13.31 14.988-16.035-12.027 7.722 18.497L35.97 43.561l1.298 20.003L32 44.223l-5.267 19.34 1.298-20.002L16.77 60.143l7.723-18.497L8.456 53.673l13.31-14.988-19.072 6.17L20.151 35 .11 34.643l19.71-3.652-18.84-6.846 19.828 2.945L5.21 14.498l17.796 9.224L12.345 6.747 26.183 21.25 21.61 1.734l8.378 18.21L32 0Z" fill="#89D3C1"/></svg><svg fill="none" viewBox="0 0 40 40" id="telegram" xmlns="http://www.w3.org/2000/svg"><rect width="40" height="40" rx="16" fill="#5EB5F7"/><path d="M31.932 10.185 28.31 30.55c-.273 1.438-.986 1.795-1.999 1.118l-5.518-4.849-2.663 3.054c-.294.352-.54.645-1.109.645l.397-6.701 10.227-11.02c.445-.473-.096-.735-.69-.262L14.31 22.029l-5.443-2.032c-1.184-.44-1.205-1.411.246-2.088l21.292-9.781c.985-.441 1.848.262 1.527 2.057Z" fill="#fff"/></svg><svg viewBox="0 0 40 40" id="telegram-goiteens" xmlns="http://www.w3.org/2000/svg"><g opacity=".9"><path d="M33.197 9.611C32.87 9.217 32.385 9 31.826 9c-.304 0-.626.064-.957.189L8.346 17.715C7.151 18.168 6.99 18.847 7 19.211c.01.365.21 1.033 1.43 1.418l.021.007 3.16.896 15.382-7.794a.782.782 0 0 1 1.05.337.768.768 0 0 1-.128.88l-8.552 9.014-.244.98 7.286 5.82.011.009c.466.358.975.547 1.472.547.97 0 1.743-.712 1.968-1.814l3.69-18.072c.148-.725.024-1.374-.35-1.828Z"/><path d="M17.898 23.402a.77.77 0 0 1 .189-.345l5.612-5.914-10.414 5.277 2.364 6.707c.135.382.336.707.584.962l1.665-6.687ZM17.685 30.71c.562-.005 1.114-.24 1.598-.682l1.73-1.58-2.307-1.842-1.021 4.104Z"/></g></svg><svg fill="none" viewBox="0 0 40 40" id="tiktok" xmlns="http://www.w3.org/2000/svg"><rect width="40" height="40" rx="16" fill="#fff"/><g clip-path="url(#ra)"><path d="M16.587 20.445c-1.903 0-3.44 1.538-3.412 3.427a3.38 3.38 0 0 0 1.664 2.845 3.313 3.313 0 0 1-.539-1.767c-.028-1.884 1.51-3.422 3.412-3.422.375 0 .736.061 1.074.169v-3.774a7.428 7.428 0 0 0-1.074-.08h-.051v2.776a3.389 3.389 0 0 0-1.074-.174ZM24.814 9.125h-1.003a5.764 5.764 0 0 0 2.18 3.473 5.806 5.806 0 0 1-1.177-3.473ZM30.552 18.552v-3.68c-.37 0-.727-.038-1.079-.103v2.7a9.298 9.298 0 0 1-3.675-.746 9.598 9.598 0 0 1-2.09-1.218l.019 8.339a6.976 6.976 0 0 1-2.091 4.96 7.11 7.11 0 0 1-3.975 1.987 7.304 7.304 0 0 1-3.647-.389 11.861 11.861 0 0 0 4.495 1.504 7.11 7.11 0 0 0 4.252-2.025 6.976 6.976 0 0 0 2.09-4.96l-.065-8.338a9.21 9.21 0 0 0 2.09 1.219 9.32 9.32 0 0 0 3.676.75Z" fill="#F00044"/><path d="M11.53 18.837a7.024 7.024 0 0 0-2.082 4.983c0 1.05.235 2.067.67 2.99.446.648.957 1.253 1.52 1.796a6.93 6.93 0 0 1-1.065-3.708c0-1.87.755-3.67 2.082-4.987a7.133 7.133 0 0 1 5.006-2.077v-.998a7.428 7.428 0 0 0-1.074-.08 7.15 7.15 0 0 0-5.057 2.081ZM29.473 14.764v-1.003h-.009a5.72 5.72 0 0 1-3.469-1.163 5.727 5.727 0 0 0 3.478 2.166Z" fill="#08FFF9"/><path d="M17.52 28.264c.446.024.872-.037 1.266-.164 1.36-.445 2.339-1.71 2.339-3.202l.005-5.578V9.125h2.68a5.841 5.841 0 0 1-.112-1.078H20v10.186l-.005 5.578c0 1.49-.98 2.756-2.339 3.201-.393.132-.82.193-1.265.165a3.439 3.439 0 0 1-1.557-.474 3.428 3.428 0 0 0 2.686 1.561Z" fill="#08FFF9"/><path d="M29.473 17.473V14.77a5.726 5.726 0 0 1-3.478-2.166 5.765 5.765 0 0 1-2.18-3.473h-2.68v10.186l-.005 5.578c0 1.49-.98 2.756-2.34 3.201-.393.132-.82.193-1.265.164a3.42 3.42 0 0 1-2.681-1.551 3.373 3.373 0 0 1-1.664-2.845c-.028-1.885 1.51-3.422 3.412-3.422.375 0 .736.06 1.074.168v-2.775a7.133 7.133 0 0 0-5.007 2.077 7.028 7.028 0 0 0-2.086 4.987c0 1.332.37 2.607 1.064 3.708.713.694 1.51 1.294 2.377 1.796a7.2 7.2 0 0 0 2.573.468c.361 0 .722-.028 1.074-.08a7.11 7.11 0 0 0 3.975-1.987 6.976 6.976 0 0 0 2.09-4.96l-.018-8.338a9.205 9.205 0 0 0 2.09 1.218 9.319 9.319 0 0 0 3.675.75Z" fill="#010101"/></g><defs><clipPath id="ra"><path fill="#fff" transform="translate(8 8)" d="M0 0h24v24H0z"/></clipPath></defs></svg><svg fill="none" viewBox="0 0 39 26" id="visa" xmlns="http://www.w3.org/2000/svg"><g clip-path="url(#sa)"><rect x=".5" width="38" height="26" rx="4" fill="#fff"/><path d="M18.413 8.168H15.77l-1.651 9.687h2.639l1.655-9.687ZM10.545 17.845l4.157-9.67h-2.797l-2.586 6.607-.276-.998c-.507-1.2-1.956-2.928-3.657-4.015l2.364 8.08 2.795-.004ZM25.952 14.688c.01-1.1-.696-1.939-2.218-2.632-.925-.447-1.489-.745-1.482-1.2 0-.4.477-.832 1.512-.832a4.875 4.875 0 0 1 1.976.372l.239.109.358-2.099a6.846 6.846 0 0 0-2.367-.404c-2.61 0-4.447 1.313-4.463 3.196-.017 1.392 1.313 2.168 2.314 2.632 1.028.473 1.373.776 1.366 1.2-.007.65-.819.945-1.578.945-1.058 0-1.618-.146-2.487-.508l-.338-.155-.37 2.171c.615.27 1.756.505 2.94.515 2.774 0 4.578-1.297 4.598-3.31ZM29.092 16.403l3.382.003c.08.338.321 1.453.321 1.453h2.45l-2.138-9.681h-2.04c-.632 0-1.103.172-1.382.802l-3.922 8.878h2.775s.451-1.193.554-1.455Zm1.81-4.691c-.013.026.219-.56.351-.925l.18.835s.503 2.314.61 2.799H29.85c.219-.557 1.05-2.71 1.05-2.71ZM36.254-.104H2.746A2.246 2.246 0 0 0 .5 2.143v2.331h38V2.143a2.246 2.246 0 0 0-2.246-2.247Z" fill="#059BBF"/><path d="m8.934 13.15-.892-4.28c-.153-.59-.597-.765-1.151-.789H2.8l-.037.196c3.186.772 5.294 2.636 6.17 4.874ZM36.254 26.103H2.746A2.246 2.246 0 0 1 .5 23.857v-2.332h38v2.332a2.246 2.246 0 0 1-2.246 2.246Z" fill="#F79F1A"/></g><defs><clipPath id="sa"><rect x=".5" width="38" height="26" rx="4" fill="#fff"/></clipPath></defs></svg><svg fill="none" viewBox="0 0 40 40" id="youtube" xmlns="http://www.w3.org/2000/svg"><rect width="40" height="40" rx="16" fill="#E02900"/><path fill-rule="evenodd" clip-rule="evenodd" d="M29.377 12.479c1.032.264 1.846 1.04 2.122 2.027.501 1.788.501 5.519.501 5.519s0 3.73-.502 5.518c-.276.987-1.089 1.731-2.121 1.995-1.872.479-9.377.479-9.377.479s-7.505 0-9.377-.479c-1.032-.264-1.845-1.008-2.121-1.995C8 23.755 8 20.025 8 20.025s0-3.73.502-5.519c.275-.986 1.089-1.763 2.121-2.027C12.495 12 20 12 20 12s7.505 0 9.377.479Zm-11.831 4.159v6.774l6.273-3.387-6.273-3.387Z" fill="#fff"/></svg><svg viewBox="0 0 40 40" id="youtube-goiteens" xmlns="http://www.w3.org/2000/svg"><path d="M34.64 11.102c-.868-1.53-1.81-1.812-3.728-1.92C28.996 9.054 24.178 9 20.004 9c-4.182 0-9.002.054-10.916.18-1.914.11-2.858.39-3.734 1.922C4.46 12.632 4 15.266 4 19.904v.016c0 4.618.46 7.272 1.354 8.785.876 1.531 1.818 1.809 3.732 1.938 1.916.111 6.736.177 10.918.177 4.174 0 8.992-.066 10.91-.175 1.918-.129 2.86-.407 3.728-1.938.902-1.513 1.358-4.167 1.358-8.785v-.016c0-4.64-.456-7.273-1.36-8.803Z"/><path d="M16 25.86V13.959l10 5.95-10 5.95Z" fill="#263238"/></svg></svg>