<svg width="512" height="512" viewBox="0 0 512 512" fill="none" xmlns="http://www.w3.org/2000/svg">
<rect width="512" height="512" fill="#FEC830"/>
<path d="M459.286 232.164L380.864 132L44 152.467L57.9958 381L394.859 360.571L460.713 254.994L468 243.179L459.286 232.202V232.164Z" fill="#1A1A1A"/>
<path d="M223.517 246.533L177.596 249.315L178.984 271.422L200.422 270.126L201.077 280.95C196.45 284.419 190.32 286.477 183.264 286.934C167.456 287.925 155.157 276.529 154.116 259.949C153.653 252.365 155.889 245.047 160.478 239.368C165.027 233.727 171.35 230.411 178.252 229.992C188.97 229.344 195.448 232.355 202.928 237.843L204.508 238.987L219.198 218.977L217.695 217.833C205.588 208.876 193.983 205.598 177.558 206.589C148.024 208.381 126.278 232.507 128.052 261.474C129.826 290.174 151.494 310.108 180.218 310.108C181.491 310.108 182.763 310.108 184.035 309.993C199.959 309.04 213.955 302.866 225.676 291.698L226.331 291.089L223.594 246.457L223.517 246.533Z" fill="white"/>
<path d="M363.282 248.058C361.431 218.557 337.218 197.671 306.836 199.538C276.801 201.368 254.708 225.494 256.482 254.499C258.217 282.78 280.618 303.133 309.265 303.133C310.46 303.133 311.694 303.133 312.889 303.018C342.886 301.189 365.017 277.063 363.243 248.058H363.282ZM311.771 279.654C304.523 280.074 297.544 277.787 292.262 273.137C286.517 268.106 283.124 260.94 282.623 252.936C282.16 245.161 284.396 237.843 288.946 232.317C293.573 226.714 300.359 223.36 307.993 222.902C308.571 222.902 309.149 222.864 309.728 222.864C316.359 222.864 322.605 225.151 327.502 229.458C333.247 234.489 336.64 241.655 337.141 249.659C338.144 265.819 327.232 278.702 311.771 279.692V279.654Z" fill="white"/>
</svg>
