<svg width="512" height="512" viewBox="0 0 512 512" fill="none" xmlns="http://www.w3.org/2000/svg">
<rect width="512" height="512" fill="#0B0B0B"/>
<path fill-rule="evenodd" clip-rule="evenodd" d="M459.002 194H279.92V318H459.002V194ZM336.475 228.142V255.189V282.109C336.475 282.166 336.476 282.224 336.478 282.281V282.281V282.281V282.281C336.48 282.395 336.483 282.508 336.475 282.618C336.45 282.93 336.531 283.115 336.883 283.064C336.966 283.055 337.05 283.058 337.134 283.061C337.176 283.062 337.218 283.064 337.259 283.064C338.742 283.064 340.225 283.064 341.708 283.065H341.709C344.678 283.066 347.65 283.068 350.621 283.064C350.714 283.064 350.797 283.065 350.87 283.066C351.154 283.069 351.293 283.071 351.36 283.002C351.423 282.937 351.421 282.806 351.415 282.551C351.413 282.465 351.411 282.365 351.411 282.249V228.218C351.411 228.176 351.41 228.134 351.408 228.091V228.091C351.406 228.006 351.403 227.921 351.411 227.837C351.443 227.518 351.336 227.353 350.997 227.391C350.93 227.399 350.861 227.397 350.79 227.394H350.79L350.79 227.394C350.755 227.392 350.719 227.391 350.683 227.391C349.186 227.391 347.687 227.39 346.189 227.39C343.191 227.388 340.192 227.387 337.197 227.391C337.108 227.391 337.03 227.39 336.961 227.389H336.961C336.716 227.385 336.592 227.383 336.53 227.444C336.467 227.507 336.469 227.635 336.473 227.893C336.474 227.966 336.475 228.048 336.475 228.142ZM410.868 227.393H388.589H388.576C381.156 227.393 373.736 227.393 366.323 227.386C366.266 227.386 366.21 227.387 366.154 227.388H366.154C366.043 227.389 365.933 227.391 365.821 227.386C365.57 227.374 365.482 227.495 365.5 227.73C365.505 227.802 365.503 227.871 365.502 227.941V227.941V227.941L365.501 227.982C365.501 228.004 365.5 228.026 365.5 228.048V240.97C365.5 241.018 365.5 241.063 365.5 241.104V241.104C365.499 241.383 365.498 241.52 365.566 241.586C365.631 241.65 365.76 241.648 366.011 241.646C366.063 241.646 366.121 241.645 366.185 241.645H380.18C380.634 241.645 380.859 241.645 380.972 241.758C381.083 241.87 381.083 242.093 381.083 242.536V282.378C381.083 282.454 381.082 282.522 381.081 282.583C381.078 282.813 381.077 282.932 381.135 282.994C381.199 283.062 381.335 283.061 381.616 283.06C381.659 283.059 381.705 283.059 381.755 283.059H381.943H395.185C395.604 283.059 395.812 283.059 395.916 282.955C396.02 282.851 396.02 282.644 396.02 282.232V242.39C396.02 242.303 396.019 242.227 396.018 242.16C396.014 241.912 396.012 241.784 396.075 241.718C396.143 241.647 396.285 241.649 396.58 241.651C396.636 241.651 396.698 241.652 396.766 241.652H411.013C411.628 241.652 411.628 241.652 411.634 241.034V240.843V228.176C411.634 228.113 411.634 228.054 411.635 228.001C411.635 227.98 411.635 227.959 411.636 227.939C411.639 227.658 411.641 227.519 411.572 227.451C411.505 227.385 411.371 227.387 411.108 227.391H411.107C411.037 227.392 410.958 227.393 410.868 227.393Z" fill="white"/>
<path fill-rule="evenodd" clip-rule="evenodd" d="M231.08 194H52V318H231.08L279.92 256L231.08 194ZM131.182 246.939C131.454 247.163 131.728 247.388 132.005 247.613C132.189 247.5 132.302 247.344 132.409 247.198C132.434 247.164 132.459 247.13 132.484 247.098C133.454 245.927 134.418 244.749 135.383 243.571C137.317 241.222 139.246 238.874 141.174 236.518C141.559 236.047 141.546 235.831 141.105 235.449C140.758 235.143 140.405 234.844 140.046 234.545C136.983 231.999 133.618 230.013 129.805 228.861C127.259 228.097 124.656 227.677 122.009 227.492C118.556 227.257 115.133 227.371 111.743 228.167C99.8694 230.942 91.0084 240.923 89.9686 253.718C89.6913 257.168 89.9559 260.586 90.8257 263.941C92.8046 271.535 97.1027 277.353 103.928 281.185C107.646 283.273 111.674 284.374 115.909 284.718C119.495 285.011 123.043 284.788 126.547 283.986C132.471 282.63 137.708 279.893 142.365 275.978C142.737 275.666 142.889 275.354 142.889 274.858C142.873 268.771 142.874 262.679 142.875 256.59V256.582C142.876 255.059 142.876 253.535 142.876 252.012C142.876 251.933 142.87 251.853 142.865 251.772C142.853 251.594 142.841 251.417 142.889 251.254C142.944 251.066 142.844 250.958 142.746 250.853C142.666 250.766 142.587 250.681 142.599 250.554C142.624 250.344 142.485 250.312 142.321 250.312H141.88H117.308C117.26 250.312 117.211 250.314 117.162 250.315C117.063 250.318 116.963 250.321 116.867 250.312C116.614 250.287 116.533 250.414 116.551 250.65C116.56 250.748 116.557 250.848 116.554 250.948V250.948L116.554 250.949C116.553 250.998 116.551 251.047 116.551 251.095C116.551 252.432 116.551 253.769 116.55 255.106V255.117C116.549 257.786 116.547 260.456 116.551 263.126C116.551 263.237 116.549 263.332 116.548 263.414C116.543 263.66 116.54 263.786 116.602 263.849C116.666 263.916 116.801 263.914 117.078 263.911C117.147 263.91 117.226 263.909 117.314 263.909H127.209C127.296 263.909 127.373 263.908 127.441 263.907H127.442C127.714 263.904 127.848 263.902 127.912 263.968C127.973 264.031 127.971 264.155 127.967 264.397V264.398C127.966 264.483 127.964 264.582 127.965 264.698C127.969 265.279 127.968 265.857 127.966 266.436V266.436V266.437C127.966 266.727 127.965 267.017 127.965 267.308V267.329C127.965 268.524 127.965 268.534 126.9 269.052C123.78 270.567 120.484 271 117.081 270.567C113.299 270.09 110.274 268.276 108.056 265.138C106.613 263.094 105.825 260.79 105.529 258.307C105.157 255.137 105.535 252.088 106.953 249.211C108.661 245.755 111.245 243.272 114.957 242.133C117.56 241.331 120.194 241.541 122.803 242.12C125.167 242.642 127.227 243.813 129.124 245.284C129.82 245.817 130.495 246.373 131.182 246.939L131.182 246.939ZM201.183 235.391C195.354 230.006 188.409 227.441 181.23 227.384C177.915 227.39 175.439 227.664 172.811 228.357C165.185 230.375 159.217 234.704 155.253 241.617C151.181 248.708 150.356 256.315 152.631 264.138C155.177 272.884 160.603 279.25 168.998 282.795C175.445 285.513 182.125 285.876 188.863 284.081C196.69 282 202.69 277.397 206.622 270.217C209.937 264.163 210.826 257.671 209.591 250.891C208.481 244.8 205.708 239.58 201.183 235.391ZM168.992 249.064C171.531 244.309 175.59 242.031 179.529 241.941C187.52 241.922 192.745 246.486 194.169 252.814C195.032 256.627 194.648 260.331 192.801 263.794C190.627 267.862 187.237 270.23 182.674 270.758C178.262 271.274 174.411 270.007 171.267 266.786C169.25 264.724 168.034 262.209 167.517 259.37C166.861 255.774 167.265 252.292 168.992 249.064Z" fill="white"/>
</svg>
